;Layer: Drill PTH
;EasyEDA v6.3.43, 2020-06-07T13:11:06+08:00
;57be81840bc34c5ebe362b8f785087f4,,10
;Gerber Generator version 0.2
M48
INCH,LZ,00.0000
;Holesize 1 = 0.012 INCH
T01C0.012
;Holesize 2 = 0.030 INCH
T02C0.030
;Holesize 3 = 0.032 INCH
T03C0.032
;Holesize 4 = 0.032 INCH
T04C0.032
%
G05
G90
T01
X+010900Y+066000
X+008380Y+065440
X+011300Y+057700
X+011000Y+059300
X+010500Y+063900
X+001950Y+058050
X+002100Y+063500
X+004500Y+057959
X+008550Y+057700
X+004459Y+063559
X+008600Y+063300
X+008800Y+063050
X+004550Y+057450
X+009050Y+068550
X+004200Y+063300
X+006900Y+049000
X+001800Y+053100
X+002100Y+053850
X+011050Y+054550
X+010259Y+065419
X+002459Y+054319
X+002700Y+068540
X+002350Y+057700
X+004150Y+070150
X+002659Y+053919
X+009050Y+069350
X+002000Y+050700
X+001950Y+054350
X+001950Y+057650
X+002188Y+063138
X+002950Y+063300
X+006459Y+068319
X+006859Y+068319
X+006859Y+069800
X+006859Y+070600
X+004459Y+054400
X+004259Y+054640
X+004459Y+054880
X+004259Y+055159
X+004280Y+057200
X+004269Y+056680
X+004459Y+056440
X+004259Y+056159
X+004459Y+055919
X+004280Y+055659
X+004459Y+055400
X+004459Y+056919
X+004100Y+058800
X+002259Y+047519
X+006819Y+040959
X+006180Y+040959
X+006180Y+039840
X+006815Y+038715
X+006500Y+039880
X+005819Y+041640
X+005540Y+040800
X+006180Y+037440
X+004700Y+041040
X+006180Y+036080
X+006180Y+035040
X+004659Y+041719
X+004419Y+041919
X+005619Y+031959
X+004259Y+059880
X+003980Y+059559
X+004259Y+042759
X+003980Y+042600
X+005819Y+030959
X+006819Y+031000
X+003740Y+060000
X+004019Y+060680
X+005019Y+027640
X+003540Y+042200
X+004459Y+036159
X+003980Y+061080
X+005259Y+027319
X+001380Y+058280
X+001090Y+059069
X+000940Y+060440
X+005780Y+026240
X+004780Y+025280
X+006619Y+026200
X+001059Y+059759
X+005300Y+024200
X+006819Y+023600
X+008540Y+054359
X+008740Y+054640
X+008540Y+054880
X+008740Y+055159
X+008540Y+055400
X+008740Y+055680
X+008540Y+055919
X+008740Y+056159
X+008540Y+056440
X+008740Y+056680
X+008540Y+056919
X+008740Y+057200
X+006819Y+041759
X+007259Y+020559
X+007380Y+041480
X+006180Y+018519
X+007459Y+042400
X+006380Y+016240
X+008059Y+041840
X+007219Y+016319
X+008380Y+042280
X+007300Y+012519
X+008459Y+043159
X+006180Y+019840
X+011300Y+059559
X+011300Y+063919
X+007419Y+059200
X+007780Y+059200
X+008140Y+059200
X+008500Y+059200
X+008859Y+059200
X+008580Y+061240
X+008780Y+061519
X+009019Y+061759
X+008780Y+062000
X+009100Y+062280
X+009100Y+062800
X+008780Y+062519
X+007059Y+011119
X+008859Y+042800
X+006219Y+009919
X+009180Y+042359
X+006180Y+008519
X+009459Y+041919
X+007180Y+006240
X+009940Y+041680
X+006940Y+005000
X+010419Y+041440
X+007180Y+003680
X+010540Y+044159
X+005826Y+027246
X+005500Y+029959
X+003940Y+065444
X+007780Y+065444
X+003500Y+063559
X+004900Y+066280
X+004900Y+065759
X+005419Y+066400
X+005419Y+066080
X+005419Y+065759
X+004900Y+064919
X+005419Y+065119
X+005419Y+064719
X+003980Y+067280
X+004259Y+067040
X+004140Y+067880
X+004380Y+067680
X+004900Y+067240
X+004619Y+067440
X+005140Y+064400
X+004819Y+064119
X+004019Y+064040
X+004259Y+064280
X+004540Y+064559
X+002780Y+056959
T02
X+004100Y+045100G85X+004100Y+045100
T03
X+004098Y+045886G85X+004101Y+045886
X+004098Y+046675G85X+004101Y+046675
X+004098Y+047461G85X+004101Y+047461
T04
X+006500Y+051100
X+006500Y+051600
X+006500Y+052100
M30
