G04 Layer: TopSolderMaskLayer*
G04 EasyEDA v6.3.43, 2020-06-07T13:11:06+08:00*
G04 57be81840bc34c5ebe362b8f785087f4,10*
G04 Gerber Generator version 0.2*
G04 Scale: 100 percent, Rotated: No, Reflected: No *
G04 Dimensions in inches *
G04 leading zeros omitted , absolute positions ,2 integer and 4 decimal *
%FSLAX24Y24*%
%MOIN*%
G90*
G70D02*

%ADD37C,0.067060*%
%ADD38C,0.047370*%
%ADD44R,0.048000X0.044000*%
%ADD48R,0.078900X0.019800*%

%LPD*%
G54D37*
G01X4040Y45887D02*
G01X4159Y45887D01*
G01X4040Y46674D02*
G01X4159Y46674D01*
G01X4040Y47462D02*
G01X4159Y47462D01*
G54D38*
G01X6553Y51600D02*
G01X6446Y51600D01*
G01X6553Y52100D02*
G01X6446Y52100D01*
G36*
G01X9213Y65205D02*
G01X9213Y65684D01*
G01X10086Y65684D01*
G01X10086Y65205D01*
G01X9213Y65205D01*
G37*
G36*
G01X9213Y65984D02*
G01X9213Y66463D01*
G01X10086Y66463D01*
G01X10086Y65984D01*
G01X9213Y65984D01*
G37*
G36*
G01X9213Y66775D02*
G01X9213Y67254D01*
G01X10086Y67254D01*
G01X10086Y66775D01*
G01X9213Y66775D01*
G37*
G36*
G01X9213Y67565D02*
G01X9213Y68044D01*
G01X10086Y68044D01*
G01X10086Y67565D01*
G01X9213Y67565D01*
G37*
G36*
G01X9213Y68355D02*
G01X9213Y68834D01*
G01X10086Y68834D01*
G01X10086Y68355D01*
G01X9213Y68355D01*
G37*
G36*
G01X9213Y69134D02*
G01X9213Y69613D01*
G01X10086Y69613D01*
G01X10086Y69134D01*
G01X9213Y69134D01*
G37*
G36*
G01X9213Y69925D02*
G01X9213Y70404D01*
G01X10086Y70404D01*
G01X10086Y69925D01*
G01X9213Y69925D01*
G37*
G36*
G01X9213Y70715D02*
G01X9213Y71194D01*
G01X10086Y71194D01*
G01X10086Y70715D01*
G01X9213Y70715D01*
G37*
G36*
G01X2913Y70715D02*
G01X2913Y71194D01*
G01X3786Y71194D01*
G01X3786Y70715D01*
G01X2913Y70715D01*
G37*
G36*
G01X2913Y69925D02*
G01X2913Y70404D01*
G01X3786Y70404D01*
G01X3786Y69925D01*
G01X2913Y69925D01*
G37*
G36*
G01X2913Y69134D02*
G01X2913Y69613D01*
G01X3786Y69613D01*
G01X3786Y69134D01*
G01X2913Y69134D01*
G37*
G36*
G01X2913Y68355D02*
G01X2913Y68834D01*
G01X3786Y68834D01*
G01X3786Y68355D01*
G01X2913Y68355D01*
G37*
G36*
G01X2913Y67565D02*
G01X2913Y68044D01*
G01X3786Y68044D01*
G01X3786Y67565D01*
G01X2913Y67565D01*
G37*
G36*
G01X2913Y66775D02*
G01X2913Y67254D01*
G01X3786Y67254D01*
G01X3786Y66775D01*
G01X2913Y66775D01*
G37*
G36*
G01X2913Y65984D02*
G01X2913Y66463D01*
G01X3786Y66463D01*
G01X3786Y65984D01*
G01X2913Y65984D01*
G37*
G36*
G01X2913Y65205D02*
G01X2913Y65684D01*
G01X3786Y65684D01*
G01X3786Y65205D01*
G01X2913Y65205D01*
G37*
G36*
G01X6578Y22755D02*
G01X6578Y23346D01*
G01X7051Y23346D01*
G01X7051Y22755D01*
G01X6578Y22755D01*
G37*
G36*
G01X6578Y21653D02*
G01X6578Y22244D01*
G01X7051Y22244D01*
G01X7051Y21653D01*
G01X6578Y21653D01*
G37*
G36*
G01X5948Y21653D02*
G01X5948Y22244D01*
G01X6421Y22244D01*
G01X6421Y21653D01*
G01X5948Y21653D01*
G37*
G36*
G01X5948Y22755D02*
G01X5948Y23346D01*
G01X6421Y23346D01*
G01X6421Y22755D01*
G01X5948Y22755D01*
G37*
G36*
G01X8855Y44761D02*
G01X8855Y46338D01*
G01X9723Y46338D01*
G01X9723Y44761D01*
G01X8855Y44761D01*
G37*
G36*
G01X6376Y45215D02*
G01X6376Y45884D01*
G01X7242Y45884D01*
G01X7242Y45215D01*
G01X6376Y45215D01*
G37*
G36*
G01X6376Y44309D02*
G01X6376Y44980D01*
G01X7242Y44980D01*
G01X7242Y44309D01*
G01X6376Y44309D01*
G37*
G36*
G01X6376Y46119D02*
G01X6376Y46790D01*
G01X7242Y46790D01*
G01X7242Y46119D01*
G01X6376Y46119D01*
G37*
G36*
G01X3705Y44765D02*
G01X3705Y45434D01*
G01X4494Y45434D01*
G01X4494Y44765D01*
G01X3705Y44765D01*
G37*
G36*
G01X10659Y64779D02*
G01X10659Y65219D01*
G01X11140Y65219D01*
G01X11140Y64779D01*
G01X10659Y64779D01*
G37*
G36*
G01X10659Y65380D02*
G01X10659Y65821D01*
G01X11140Y65821D01*
G01X11140Y65380D01*
G01X10659Y65380D01*
G37*
G36*
G01X10659Y66179D02*
G01X10659Y66619D01*
G01X11140Y66619D01*
G01X11140Y66179D01*
G01X10659Y66179D01*
G37*
G36*
G01X10659Y66781D02*
G01X10659Y67221D01*
G01X11140Y67221D01*
G01X11140Y66781D01*
G01X10659Y66781D01*
G37*
G54D44*
G01X9800Y54801D03*
G01X9800Y54198D03*
G36*
G01X3480Y48859D02*
G01X3480Y49340D01*
G01X3921Y49340D01*
G01X3921Y48859D01*
G01X3480Y48859D01*
G37*
G36*
G01X2878Y48859D02*
G01X2878Y49340D01*
G01X3319Y49340D01*
G01X3319Y48859D01*
G01X2878Y48859D01*
G37*
G01X8900Y50301D03*
G01X8900Y49698D03*
G01X3200Y55001D03*
G01X3200Y54398D03*
G36*
G01X1859Y68498D02*
G01X1859Y68938D01*
G01X2340Y68938D01*
G01X2340Y68498D01*
G01X1859Y68498D01*
G37*
G36*
G01X1859Y69101D02*
G01X1859Y69540D01*
G01X2340Y69540D01*
G01X2340Y69101D01*
G01X1859Y69101D01*
G37*
G36*
G01X9484Y52650D02*
G01X9484Y53517D01*
G01X10115Y53517D01*
G01X10115Y52650D01*
G01X9484Y52650D01*
G37*
G36*
G01X9484Y50482D02*
G01X9484Y51351D01*
G01X10115Y51351D01*
G01X10115Y50482D01*
G01X9484Y50482D01*
G37*
G36*
G01X2884Y50482D02*
G01X2884Y51350D01*
G01X3515Y51350D01*
G01X3515Y50482D01*
G01X2884Y50482D01*
G37*
G36*
G01X2884Y52648D02*
G01X2884Y53517D01*
G01X3515Y53517D01*
G01X3515Y52648D01*
G01X2884Y52648D01*
G37*
G36*
G01X6209Y50863D02*
G01X6209Y51336D01*
G01X6790Y51336D01*
G01X6790Y50863D01*
G01X6209Y50863D01*
G37*
G36*
G01X6580Y53159D02*
G01X6580Y53640D01*
G01X7021Y53640D01*
G01X7021Y53159D01*
G01X6580Y53159D01*
G37*
G36*
G01X5978Y53159D02*
G01X5978Y53640D01*
G01X6419Y53640D01*
G01X6419Y53159D01*
G01X5978Y53159D01*
G37*
G36*
G01X6578Y25255D02*
G01X6578Y25846D01*
G01X7051Y25846D01*
G01X7051Y25255D01*
G01X6578Y25255D01*
G37*
G36*
G01X6578Y24153D02*
G01X6578Y24744D01*
G01X7051Y24744D01*
G01X7051Y24153D01*
G01X6578Y24153D01*
G37*
G36*
G01X5948Y24153D02*
G01X5948Y24744D01*
G01X6421Y24744D01*
G01X6421Y24153D01*
G01X5948Y24153D01*
G37*
G36*
G01X5948Y25255D02*
G01X5948Y25846D01*
G01X6421Y25846D01*
G01X6421Y25255D01*
G01X5948Y25255D01*
G37*
G36*
G01X6578Y27755D02*
G01X6578Y28346D01*
G01X7051Y28346D01*
G01X7051Y27755D01*
G01X6578Y27755D01*
G37*
G36*
G01X6578Y26653D02*
G01X6578Y27244D01*
G01X7051Y27244D01*
G01X7051Y26653D01*
G01X6578Y26653D01*
G37*
G36*
G01X5948Y26653D02*
G01X5948Y27244D01*
G01X6421Y27244D01*
G01X6421Y26653D01*
G01X5948Y26653D01*
G37*
G36*
G01X5948Y27755D02*
G01X5948Y28346D01*
G01X6421Y28346D01*
G01X6421Y27755D01*
G01X5948Y27755D01*
G37*
G36*
G01X6578Y30255D02*
G01X6578Y30846D01*
G01X7051Y30846D01*
G01X7051Y30255D01*
G01X6578Y30255D01*
G37*
G36*
G01X6578Y29153D02*
G01X6578Y29744D01*
G01X7051Y29744D01*
G01X7051Y29153D01*
G01X6578Y29153D01*
G37*
G36*
G01X5948Y29153D02*
G01X5948Y29744D01*
G01X6421Y29744D01*
G01X6421Y29153D01*
G01X5948Y29153D01*
G37*
G36*
G01X5948Y30255D02*
G01X5948Y30846D01*
G01X6421Y30846D01*
G01X6421Y30255D01*
G01X5948Y30255D01*
G37*
G36*
G01X6578Y10255D02*
G01X6578Y10846D01*
G01X7051Y10846D01*
G01X7051Y10255D01*
G01X6578Y10255D01*
G37*
G36*
G01X6578Y9153D02*
G01X6578Y9744D01*
G01X7051Y9744D01*
G01X7051Y9153D01*
G01X6578Y9153D01*
G37*
G36*
G01X5948Y9153D02*
G01X5948Y9744D01*
G01X6421Y9744D01*
G01X6421Y9153D01*
G01X5948Y9153D01*
G37*
G36*
G01X5948Y10255D02*
G01X5948Y10846D01*
G01X6421Y10846D01*
G01X6421Y10255D01*
G01X5948Y10255D01*
G37*
G36*
G01X6578Y7755D02*
G01X6578Y8346D01*
G01X7051Y8346D01*
G01X7051Y7755D01*
G01X6578Y7755D01*
G37*
G36*
G01X6578Y6653D02*
G01X6578Y7244D01*
G01X7051Y7244D01*
G01X7051Y6653D01*
G01X6578Y6653D01*
G37*
G36*
G01X5948Y6653D02*
G01X5948Y7244D01*
G01X6421Y7244D01*
G01X6421Y6653D01*
G01X5948Y6653D01*
G37*
G36*
G01X5948Y7755D02*
G01X5948Y8346D01*
G01X6421Y8346D01*
G01X6421Y7755D01*
G01X5948Y7755D01*
G37*
G36*
G01X6578Y5255D02*
G01X6578Y5846D01*
G01X7051Y5846D01*
G01X7051Y5255D01*
G01X6578Y5255D01*
G37*
G36*
G01X6578Y4153D02*
G01X6578Y4744D01*
G01X7051Y4744D01*
G01X7051Y4153D01*
G01X6578Y4153D01*
G37*
G36*
G01X5948Y4153D02*
G01X5948Y4744D01*
G01X6421Y4744D01*
G01X6421Y4153D01*
G01X5948Y4153D01*
G37*
G36*
G01X5948Y5255D02*
G01X5948Y5846D01*
G01X6421Y5846D01*
G01X6421Y5255D01*
G01X5948Y5255D01*
G37*
G36*
G01X6578Y2755D02*
G01X6578Y3346D01*
G01X7051Y3346D01*
G01X7051Y2755D01*
G01X6578Y2755D01*
G37*
G36*
G01X6578Y1653D02*
G01X6578Y2244D01*
G01X7051Y2244D01*
G01X7051Y1653D01*
G01X6578Y1653D01*
G37*
G36*
G01X5948Y1653D02*
G01X5948Y2244D01*
G01X6421Y2244D01*
G01X6421Y1653D01*
G01X5948Y1653D01*
G37*
G36*
G01X5948Y2755D02*
G01X5948Y3346D01*
G01X6421Y3346D01*
G01X6421Y2755D01*
G01X5948Y2755D01*
G37*
G36*
G01X6578Y40255D02*
G01X6578Y40846D01*
G01X7051Y40846D01*
G01X7051Y40255D01*
G01X6578Y40255D01*
G37*
G36*
G01X6578Y39153D02*
G01X6578Y39744D01*
G01X7051Y39744D01*
G01X7051Y39153D01*
G01X6578Y39153D01*
G37*
G36*
G01X5948Y39153D02*
G01X5948Y39744D01*
G01X6421Y39744D01*
G01X6421Y39153D01*
G01X5948Y39153D01*
G37*
G36*
G01X5948Y40255D02*
G01X5948Y40846D01*
G01X6421Y40846D01*
G01X6421Y40255D01*
G01X5948Y40255D01*
G37*
G36*
G01X6578Y37755D02*
G01X6578Y38346D01*
G01X7051Y38346D01*
G01X7051Y37755D01*
G01X6578Y37755D01*
G37*
G36*
G01X6578Y36653D02*
G01X6578Y37244D01*
G01X7051Y37244D01*
G01X7051Y36653D01*
G01X6578Y36653D01*
G37*
G36*
G01X5948Y36653D02*
G01X5948Y37244D01*
G01X6421Y37244D01*
G01X6421Y36653D01*
G01X5948Y36653D01*
G37*
G36*
G01X5948Y37755D02*
G01X5948Y38346D01*
G01X6421Y38346D01*
G01X6421Y37755D01*
G01X5948Y37755D01*
G37*
G36*
G01X6578Y35255D02*
G01X6578Y35846D01*
G01X7051Y35846D01*
G01X7051Y35255D01*
G01X6578Y35255D01*
G37*
G36*
G01X6578Y34153D02*
G01X6578Y34744D01*
G01X7051Y34744D01*
G01X7051Y34153D01*
G01X6578Y34153D01*
G37*
G36*
G01X5948Y34153D02*
G01X5948Y34744D01*
G01X6421Y34744D01*
G01X6421Y34153D01*
G01X5948Y34153D01*
G37*
G36*
G01X5948Y35255D02*
G01X5948Y35846D01*
G01X6421Y35846D01*
G01X6421Y35255D01*
G01X5948Y35255D01*
G37*
G36*
G01X6578Y32755D02*
G01X6578Y33346D01*
G01X7051Y33346D01*
G01X7051Y32755D01*
G01X6578Y32755D01*
G37*
G36*
G01X6578Y31653D02*
G01X6578Y32244D01*
G01X7051Y32244D01*
G01X7051Y31653D01*
G01X6578Y31653D01*
G37*
G36*
G01X5948Y31653D02*
G01X5948Y32244D01*
G01X6421Y32244D01*
G01X6421Y31653D01*
G01X5948Y31653D01*
G37*
G36*
G01X5948Y32755D02*
G01X5948Y33346D01*
G01X6421Y33346D01*
G01X6421Y32755D01*
G01X5948Y32755D01*
G37*
G36*
G01X6578Y12755D02*
G01X6578Y13346D01*
G01X7051Y13346D01*
G01X7051Y12755D01*
G01X6578Y12755D01*
G37*
G36*
G01X6578Y11653D02*
G01X6578Y12244D01*
G01X7051Y12244D01*
G01X7051Y11653D01*
G01X6578Y11653D01*
G37*
G36*
G01X5948Y11653D02*
G01X5948Y12244D01*
G01X6421Y12244D01*
G01X6421Y11653D01*
G01X5948Y11653D01*
G37*
G36*
G01X5948Y12755D02*
G01X5948Y13346D01*
G01X6421Y13346D01*
G01X6421Y12755D01*
G01X5948Y12755D01*
G37*
G36*
G01X6578Y15255D02*
G01X6578Y15846D01*
G01X7051Y15846D01*
G01X7051Y15255D01*
G01X6578Y15255D01*
G37*
G36*
G01X6578Y14153D02*
G01X6578Y14744D01*
G01X7051Y14744D01*
G01X7051Y14153D01*
G01X6578Y14153D01*
G37*
G36*
G01X5948Y14153D02*
G01X5948Y14744D01*
G01X6421Y14744D01*
G01X6421Y14153D01*
G01X5948Y14153D01*
G37*
G36*
G01X5948Y15255D02*
G01X5948Y15846D01*
G01X6421Y15846D01*
G01X6421Y15255D01*
G01X5948Y15255D01*
G37*
G36*
G01X6578Y17755D02*
G01X6578Y18346D01*
G01X7051Y18346D01*
G01X7051Y17755D01*
G01X6578Y17755D01*
G37*
G36*
G01X6578Y16653D02*
G01X6578Y17244D01*
G01X7051Y17244D01*
G01X7051Y16653D01*
G01X6578Y16653D01*
G37*
G36*
G01X5948Y16653D02*
G01X5948Y17244D01*
G01X6421Y17244D01*
G01X6421Y16653D01*
G01X5948Y16653D01*
G37*
G36*
G01X5948Y17755D02*
G01X5948Y18346D01*
G01X6421Y18346D01*
G01X6421Y17755D01*
G01X5948Y17755D01*
G37*
G36*
G01X6578Y20255D02*
G01X6578Y20846D01*
G01X7051Y20846D01*
G01X7051Y20255D01*
G01X6578Y20255D01*
G37*
G36*
G01X6578Y19153D02*
G01X6578Y19744D01*
G01X7051Y19744D01*
G01X7051Y19153D01*
G01X6578Y19153D01*
G37*
G36*
G01X5948Y19153D02*
G01X5948Y19744D01*
G01X6421Y19744D01*
G01X6421Y19153D01*
G01X5948Y19153D01*
G37*
G36*
G01X5948Y20255D02*
G01X5948Y20846D01*
G01X6421Y20846D01*
G01X6421Y20255D01*
G01X5948Y20255D01*
G37*
G01X5350Y46851D03*
G01X5350Y46248D03*
G01X6050Y46851D03*
G01X6050Y46248D03*
G36*
G01X6428Y48159D02*
G01X6428Y48640D01*
G01X6869Y48640D01*
G01X6869Y48159D01*
G01X6428Y48159D01*
G37*
G36*
G01X7030Y48159D02*
G01X7030Y48640D01*
G01X7471Y48640D01*
G01X7471Y48159D01*
G01X7030Y48159D01*
G37*
G36*
G01X6428Y49159D02*
G01X6428Y49640D01*
G01X6869Y49640D01*
G01X6869Y49159D01*
G01X6428Y49159D01*
G37*
G36*
G01X7030Y49159D02*
G01X7030Y49640D01*
G01X7471Y49640D01*
G01X7471Y49159D01*
G01X7030Y49159D01*
G37*
G36*
G01X10659Y63379D02*
G01X10659Y63819D01*
G01X11140Y63819D01*
G01X11140Y63379D01*
G01X10659Y63379D01*
G37*
G36*
G01X10659Y63980D02*
G01X10659Y64421D01*
G01X11140Y64421D01*
G01X11140Y63980D01*
G01X10659Y63980D01*
G37*
G36*
G01X10659Y57879D02*
G01X10659Y58319D01*
G01X11140Y58319D01*
G01X11140Y57879D01*
G01X10659Y57879D01*
G37*
G36*
G01X10659Y58480D02*
G01X10659Y58921D01*
G01X11140Y58921D01*
G01X11140Y58480D01*
G01X10659Y58480D01*
G37*
G36*
G01X4625Y63721D02*
G01X4625Y63919D01*
G01X5413Y63919D01*
G01X5413Y63721D01*
G01X4625Y63721D01*
G37*
G36*
G01X4625Y63461D02*
G01X4625Y63659D01*
G01X5413Y63659D01*
G01X5413Y63461D01*
G01X4625Y63461D01*
G37*
G36*
G01X4625Y63211D02*
G01X4625Y63409D01*
G01X5413Y63409D01*
G01X5413Y63211D01*
G01X4625Y63211D01*
G37*
G36*
G01X4625Y62951D02*
G01X4625Y63148D01*
G01X5413Y63148D01*
G01X5413Y62951D01*
G01X4625Y62951D01*
G37*
G36*
G01X4625Y62701D02*
G01X4625Y62898D01*
G01X5413Y62898D01*
G01X5413Y62701D01*
G01X4625Y62701D01*
G37*
G36*
G01X4625Y62440D02*
G01X4625Y62638D01*
G01X5413Y62638D01*
G01X5413Y62440D01*
G01X4625Y62440D01*
G37*
G36*
G01X4625Y62180D02*
G01X4625Y62379D01*
G01X5413Y62379D01*
G01X5413Y62180D01*
G01X4625Y62180D01*
G37*
G36*
G01X4625Y61930D02*
G01X4625Y62129D01*
G01X5413Y62129D01*
G01X5413Y61930D01*
G01X4625Y61930D01*
G37*
G36*
G01X4625Y61671D02*
G01X4625Y61869D01*
G01X5413Y61869D01*
G01X5413Y61671D01*
G01X4625Y61671D01*
G37*
G36*
G01X4625Y61421D02*
G01X4625Y61619D01*
G01X5413Y61619D01*
G01X5413Y61421D01*
G01X4625Y61421D01*
G37*
G36*
G01X4625Y61161D02*
G01X4625Y61359D01*
G01X5413Y61359D01*
G01X5413Y61161D01*
G01X4625Y61161D01*
G37*
G36*
G01X4625Y60901D02*
G01X4625Y61098D01*
G01X5413Y61098D01*
G01X5413Y60901D01*
G01X4625Y60901D01*
G37*
G36*
G01X4625Y60651D02*
G01X4625Y60848D01*
G01X5413Y60848D01*
G01X5413Y60651D01*
G01X4625Y60651D01*
G37*
G36*
G01X4625Y60390D02*
G01X4625Y60588D01*
G01X5413Y60588D01*
G01X5413Y60390D01*
G01X4625Y60390D01*
G37*
G36*
G01X4625Y60140D02*
G01X4625Y60338D01*
G01X5413Y60338D01*
G01X5413Y60140D01*
G01X4625Y60140D01*
G37*
G36*
G01X4625Y59880D02*
G01X4625Y60079D01*
G01X5413Y60079D01*
G01X5413Y59880D01*
G01X4625Y59880D01*
G37*
G54D48*
G01X7979Y59980D03*
G01X7979Y60240D03*
G01X7979Y60490D03*
G01X7979Y60750D03*
G01X7979Y61000D03*
G01X7979Y61259D03*
G01X7979Y61519D03*
G01X7979Y61769D03*
G01X7979Y62030D03*
G01X7979Y62280D03*
G01X7979Y62540D03*
G01X7979Y62800D03*
G36*
G01X5436Y59694D02*
G01X5436Y64105D01*
G01X7563Y64105D01*
G01X7563Y59694D01*
G01X5436Y59694D01*
G37*
G01X7979Y63050D03*
G01X7979Y63309D03*
G01X7979Y63559D03*
G01X7979Y63819D03*
G36*
G01X4625Y58121D02*
G01X4625Y58319D01*
G01X5413Y58319D01*
G01X5413Y58121D01*
G01X4625Y58121D01*
G37*
G36*
G01X4625Y57861D02*
G01X4625Y58059D01*
G01X5413Y58059D01*
G01X5413Y57861D01*
G01X4625Y57861D01*
G37*
G36*
G01X4625Y57611D02*
G01X4625Y57809D01*
G01X5413Y57809D01*
G01X5413Y57611D01*
G01X4625Y57611D01*
G37*
G36*
G01X4625Y57351D02*
G01X4625Y57548D01*
G01X5413Y57548D01*
G01X5413Y57351D01*
G01X4625Y57351D01*
G37*
G36*
G01X4625Y57101D02*
G01X4625Y57298D01*
G01X5413Y57298D01*
G01X5413Y57101D01*
G01X4625Y57101D01*
G37*
G36*
G01X4625Y56840D02*
G01X4625Y57038D01*
G01X5413Y57038D01*
G01X5413Y56840D01*
G01X4625Y56840D01*
G37*
G36*
G01X4625Y56580D02*
G01X4625Y56779D01*
G01X5413Y56779D01*
G01X5413Y56580D01*
G01X4625Y56580D01*
G37*
G36*
G01X4625Y56330D02*
G01X4625Y56529D01*
G01X5413Y56529D01*
G01X5413Y56330D01*
G01X4625Y56330D01*
G37*
G36*
G01X4625Y56071D02*
G01X4625Y56269D01*
G01X5413Y56269D01*
G01X5413Y56071D01*
G01X4625Y56071D01*
G37*
G36*
G01X4625Y55821D02*
G01X4625Y56019D01*
G01X5413Y56019D01*
G01X5413Y55821D01*
G01X4625Y55821D01*
G37*
G36*
G01X4625Y55561D02*
G01X4625Y55759D01*
G01X5413Y55759D01*
G01X5413Y55561D01*
G01X4625Y55561D01*
G37*
G36*
G01X4625Y55301D02*
G01X4625Y55498D01*
G01X5413Y55498D01*
G01X5413Y55301D01*
G01X4625Y55301D01*
G37*
G36*
G01X4625Y55051D02*
G01X4625Y55248D01*
G01X5413Y55248D01*
G01X5413Y55051D01*
G01X4625Y55051D01*
G37*
G36*
G01X4625Y54790D02*
G01X4625Y54988D01*
G01X5413Y54988D01*
G01X5413Y54790D01*
G01X4625Y54790D01*
G37*
G36*
G01X4625Y54540D02*
G01X4625Y54738D01*
G01X5413Y54738D01*
G01X5413Y54540D01*
G01X4625Y54540D01*
G37*
G36*
G01X4625Y54280D02*
G01X4625Y54479D01*
G01X5413Y54479D01*
G01X5413Y54280D01*
G01X4625Y54280D01*
G37*
G01X7979Y54380D03*
G01X7979Y54640D03*
G01X7979Y54890D03*
G01X7979Y55150D03*
G01X7979Y55400D03*
G01X7979Y55659D03*
G01X7979Y55919D03*
G01X7979Y56169D03*
G01X7979Y56430D03*
G01X7979Y56680D03*
G01X7979Y56940D03*
G01X7979Y57200D03*
G36*
G01X5436Y54094D02*
G01X5436Y58505D01*
G01X7563Y58505D01*
G01X7563Y54094D01*
G01X5436Y54094D01*
G37*
G01X7979Y57450D03*
G01X7979Y57709D03*
G01X7979Y57959D03*
G01X7979Y58219D03*
M00*
M02*
