G04 Layer: TopSilkLayer*
G04 EasyEDA v6.3.43, 2020-06-07T13:11:06+08:00*
G04 57be81840bc34c5ebe362b8f785087f4,10*
G04 Gerber Generator version 0.2*
G04 Scale: 100 percent, Rotated: No, Reflected: No *
G04 Dimensions in inches *
G04 leading zeros omitted , absolute positions ,2 integer and 4 decimal *
%FSLAX24Y24*%
%MOIN*%
G90*
G70D02*

%ADD10C,0.010000*%
%ADD32C,0.004724*%
%ADD33C,0.007000*%
%ADD34C,0.005080*%
%ADD35C,0.009842*%
%ADD36C,0.006000*%

%LPD*%
G54D10*
G01X3350Y73475D02*
G01X3350Y64815D01*
G01X9650Y64815D01*
G01X9650Y73475D01*
G01X3350Y73475D01*
G01X5948Y22500D02*
G01X5948Y21791D01*
G01X7051Y21791D01*
G01X7051Y23208D01*
G01X5948Y23208D01*
G01X5948Y22500D01*
G54D32*
G01X7322Y44207D02*
G01X8802Y44207D01*
G01X8802Y44704D01*
G01X6436Y46892D02*
G01X8802Y46892D01*
G01X8802Y46396D01*
G54D33*
G01X4800Y44901D02*
G01X4600Y44900D01*
G01X4600Y45350D01*
G01X4800Y45350D01*
G01X3000Y48300D02*
G01X3000Y44300D01*
G01X4800Y44300D01*
G01X4800Y48300D01*
G01X3000Y48300D01*
G01X3000Y48300D01*
G01X4800Y47700D02*
G01X4600Y47700D01*
G01X4600Y47300D01*
G01X4800Y47300D01*
G54D34*
G01X10736Y65076D02*
G01X11063Y65076D01*
G01X11051Y65523D02*
G01X10736Y65523D01*
G01X11063Y65625D02*
G01X11063Y64975D01*
G01X11063Y64975D02*
G01X10736Y64975D01*
G01X10736Y64975D02*
G01X10736Y65625D01*
G01X10736Y65625D02*
G01X11063Y65625D01*
G01X10736Y66476D02*
G01X11063Y66476D01*
G01X11051Y66923D02*
G01X10736Y66923D01*
G01X11063Y67025D02*
G01X11063Y66375D01*
G01X11063Y66375D02*
G01X10736Y66375D01*
G01X10736Y66375D02*
G01X10736Y67025D01*
G01X10736Y67025D02*
G01X11063Y67025D01*
G01X9963Y54723D02*
G01X9636Y54723D01*
G01X9648Y54276D02*
G01X9963Y54276D01*
G01X9636Y54175D02*
G01X9636Y54825D01*
G01X9636Y54825D02*
G01X9963Y54825D01*
G01X9963Y54825D02*
G01X9963Y54175D01*
G01X9963Y54175D02*
G01X9636Y54175D01*
G01X3623Y48936D02*
G01X3623Y49263D01*
G01X3176Y49252D02*
G01X3176Y48936D01*
G01X3075Y49263D02*
G01X3725Y49263D01*
G01X3725Y49263D02*
G01X3725Y48936D01*
G01X3725Y48936D02*
G01X3075Y48936D01*
G01X3075Y48936D02*
G01X3075Y49263D01*
G01X9063Y50223D02*
G01X8736Y50223D01*
G01X8748Y49776D02*
G01X9063Y49776D01*
G01X8736Y49675D02*
G01X8736Y50325D01*
G01X8736Y50325D02*
G01X9063Y50325D01*
G01X9063Y50325D02*
G01X9063Y49675D01*
G01X9063Y49675D02*
G01X8736Y49675D01*
G01X3363Y54923D02*
G01X3036Y54923D01*
G01X3048Y54476D02*
G01X3363Y54476D01*
G01X3036Y54375D02*
G01X3036Y55025D01*
G01X3036Y55025D02*
G01X3363Y55025D01*
G01X3363Y55025D02*
G01X3363Y54375D01*
G01X3363Y54375D02*
G01X3036Y54375D01*
G01X1936Y68796D02*
G01X2263Y68796D01*
G01X2251Y69244D02*
G01X1936Y69244D01*
G01X2263Y69344D02*
G01X2263Y68694D01*
G01X2263Y68694D02*
G01X1936Y68694D01*
G01X1936Y68694D02*
G01X1936Y69344D01*
G01X1936Y69344D02*
G01X2263Y69344D01*
G54D35*
G01X10390Y52789D02*
G01X10390Y51215D01*
G01X9208Y51215D01*
G01X9208Y52789D01*
G01X10390Y52789D01*
G01X10194Y52586D02*
G01X10194Y51405D01*
G01X9406Y51405D01*
G01X9406Y52586D01*
G01X10194Y52586D01*
G01X2609Y51210D02*
G01X2609Y52784D01*
G01X3791Y52784D01*
G01X3791Y51210D01*
G01X2609Y51210D01*
G01X2805Y51413D02*
G01X2805Y52594D01*
G01X3593Y52594D01*
G01X3593Y51413D01*
G01X2805Y51413D01*
G54D10*
G01X6212Y50788D02*
G01X6212Y52379D01*
G01X6610Y52379D01*
G01X6618Y52375D02*
G01X6968Y52107D01*
G01X6968Y51044D01*
G01X6645Y50788D01*
G01X6212Y50788D01*
G54D34*
G01X6723Y53236D02*
G01X6723Y53563D01*
G01X6276Y53552D02*
G01X6276Y53236D01*
G01X6175Y53563D02*
G01X6825Y53563D01*
G01X6825Y53563D02*
G01X6825Y53236D01*
G01X6825Y53236D02*
G01X6175Y53236D01*
G01X6175Y53236D02*
G01X6175Y53563D01*
G54D10*
G01X5948Y25000D02*
G01X5948Y24291D01*
G01X7051Y24291D01*
G01X7051Y25708D01*
G01X5948Y25708D01*
G01X5948Y25000D01*
G01X5948Y27500D02*
G01X5948Y26791D01*
G01X7051Y26791D01*
G01X7051Y28208D01*
G01X5948Y28208D01*
G01X5948Y27500D01*
G01X5948Y30000D02*
G01X5948Y29291D01*
G01X7051Y29291D01*
G01X7051Y30708D01*
G01X5948Y30708D01*
G01X5948Y30000D01*
G01X5948Y10000D02*
G01X5948Y9291D01*
G01X7051Y9291D01*
G01X7051Y10708D01*
G01X5948Y10708D01*
G01X5948Y10000D01*
G01X5948Y7500D02*
G01X5948Y6791D01*
G01X7051Y6791D01*
G01X7051Y8208D01*
G01X5948Y8208D01*
G01X5948Y7500D01*
G01X5948Y5000D02*
G01X5948Y4291D01*
G01X7051Y4291D01*
G01X7051Y5708D01*
G01X5948Y5708D01*
G01X5948Y5000D01*
G01X5948Y2500D02*
G01X5948Y1791D01*
G01X7051Y1791D01*
G01X7051Y3208D01*
G01X5948Y3208D01*
G01X5948Y2500D01*
G01X5948Y40000D02*
G01X5948Y39291D01*
G01X7051Y39291D01*
G01X7051Y40708D01*
G01X5948Y40708D01*
G01X5948Y40000D01*
G01X5948Y37500D02*
G01X5948Y36791D01*
G01X7051Y36791D01*
G01X7051Y38208D01*
G01X5948Y38208D01*
G01X5948Y37500D01*
G01X5948Y35000D02*
G01X5948Y34291D01*
G01X7051Y34291D01*
G01X7051Y35708D01*
G01X5948Y35708D01*
G01X5948Y35000D01*
G01X5948Y32500D02*
G01X5948Y31791D01*
G01X7051Y31791D01*
G01X7051Y33208D01*
G01X5948Y33208D01*
G01X5948Y32500D01*
G01X5948Y12500D02*
G01X5948Y11791D01*
G01X7051Y11791D01*
G01X7051Y13208D01*
G01X5948Y13208D01*
G01X5948Y12500D01*
G01X5948Y15000D02*
G01X5948Y14291D01*
G01X7051Y14291D01*
G01X7051Y15708D01*
G01X5948Y15708D01*
G01X5948Y15000D01*
G01X5948Y17500D02*
G01X5948Y16791D01*
G01X7051Y16791D01*
G01X7051Y18208D01*
G01X5948Y18208D01*
G01X5948Y17500D01*
G01X5948Y20000D02*
G01X5948Y19291D01*
G01X7051Y19291D01*
G01X7051Y20708D01*
G01X5948Y20708D01*
G01X5948Y20000D01*
G54D34*
G01X5513Y46773D02*
G01X5186Y46773D01*
G01X5198Y46326D02*
G01X5513Y46326D01*
G01X5186Y46225D02*
G01X5186Y46875D01*
G01X5186Y46875D02*
G01X5513Y46875D01*
G01X5513Y46875D02*
G01X5513Y46225D01*
G01X5513Y46225D02*
G01X5186Y46225D01*
G01X6213Y46773D02*
G01X5886Y46773D01*
G01X5898Y46326D02*
G01X6213Y46326D01*
G01X5886Y46225D02*
G01X5886Y46875D01*
G01X5886Y46875D02*
G01X6213Y46875D01*
G01X6213Y46875D02*
G01X6213Y46225D01*
G01X6213Y46225D02*
G01X5886Y46225D01*
G01X6726Y48563D02*
G01X6726Y48236D01*
G01X7173Y48248D02*
G01X7173Y48563D01*
G01X7275Y48236D02*
G01X6625Y48236D01*
G01X6625Y48236D02*
G01X6625Y48563D01*
G01X6625Y48563D02*
G01X7275Y48563D01*
G01X7275Y48563D02*
G01X7275Y48236D01*
G01X6726Y49563D02*
G01X6726Y49236D01*
G01X7173Y49248D02*
G01X7173Y49563D01*
G01X7275Y49236D02*
G01X6625Y49236D01*
G01X6625Y49236D02*
G01X6625Y49563D01*
G01X6625Y49563D02*
G01X7275Y49563D01*
G01X7275Y49563D02*
G01X7275Y49236D01*
G01X10736Y63676D02*
G01X11063Y63676D01*
G01X11051Y64123D02*
G01X10736Y64123D01*
G01X11063Y64225D02*
G01X11063Y63575D01*
G01X11063Y63575D02*
G01X10736Y63575D01*
G01X10736Y63575D02*
G01X10736Y64225D01*
G01X10736Y64225D02*
G01X11063Y64225D01*
G01X10736Y58176D02*
G01X11063Y58176D01*
G01X11051Y58623D02*
G01X10736Y58623D01*
G01X11063Y58725D02*
G01X11063Y58075D01*
G01X11063Y58075D02*
G01X10736Y58075D01*
G01X10736Y58075D02*
G01X10736Y58725D01*
G01X10736Y58725D02*
G01X11063Y58725D01*
G54D10*
G01X7840Y64069D02*
G01X7840Y59730D01*
G01X7840Y59730D02*
G01X5159Y59730D01*
G01X5159Y59730D02*
G01X5159Y64069D01*
G01X5159Y64069D02*
G01X7840Y64069D01*
G01X7840Y58469D02*
G01X7840Y54130D01*
G01X7840Y54130D02*
G01X5159Y54130D01*
G01X5159Y54130D02*
G01X5159Y58469D01*
G01X5159Y58469D02*
G01X7840Y58469D01*
G54D36*
G01X10084Y69234D02*
G01X10390Y69234D01*
G01X10453Y69255D01*
G01X10494Y69296D01*
G01X10513Y69358D01*
G01X10513Y69398D01*
G01X10494Y69459D01*
G01X10453Y69501D01*
G01X10390Y69521D01*
G01X10084Y69521D01*
G01X10186Y69677D02*
G01X10165Y69677D01*
G01X10125Y69696D01*
G01X10105Y69717D01*
G01X10084Y69759D01*
G01X10084Y69840D01*
G01X10105Y69881D01*
G01X10125Y69902D01*
G01X10165Y69921D01*
G01X10207Y69921D01*
G01X10248Y69902D01*
G01X10309Y69861D01*
G01X10513Y69656D01*
G01X10513Y69942D01*
G01X5418Y22500D02*
G01X5848Y22500D01*
G01X5848Y22500D02*
G01X5848Y22744D01*
G01X5418Y22880D02*
G01X5848Y22880D01*
G01X5418Y22880D02*
G01X5418Y23146D01*
G01X5623Y22880D02*
G01X5623Y23044D01*
G01X5848Y22880D02*
G01X5848Y23146D01*
G01X5418Y23280D02*
G01X5848Y23280D01*
G01X5418Y23280D02*
G01X5418Y23425D01*
G01X5439Y23486D01*
G01X5480Y23527D01*
G01X5521Y23546D01*
G01X5582Y23567D01*
G01X5684Y23567D01*
G01X5746Y23546D01*
G01X5787Y23527D01*
G01X5827Y23486D01*
G01X5848Y23425D01*
G01X5848Y23280D01*
G01X5500Y23703D02*
G01X5480Y23744D01*
G01X5418Y23805D01*
G01X5848Y23805D01*
G01X7990Y47421D02*
G01X7990Y47115D01*
G01X8010Y47054D01*
G01X8051Y47013D01*
G01X8113Y46992D01*
G01X8154Y46992D01*
G01X8215Y47013D01*
G01X8256Y47054D01*
G01X8276Y47115D01*
G01X8276Y47421D01*
G01X8452Y47421D02*
G01X8677Y47421D01*
G01X8555Y47259D01*
G01X8616Y47259D01*
G01X8657Y47238D01*
G01X8677Y47217D01*
G01X8698Y47157D01*
G01X8698Y47115D01*
G01X8677Y47054D01*
G01X8636Y47013D01*
G01X8575Y46992D01*
G01X8514Y46992D01*
G01X8452Y47013D01*
G01X8432Y47034D01*
G01X8411Y47075D01*
G01X4105Y48829D02*
G01X4105Y48502D01*
G01X4084Y48440D01*
G01X4063Y48419D01*
G01X4023Y48400D01*
G01X3982Y48400D01*
G01X3940Y48419D01*
G01X3919Y48440D01*
G01X3900Y48502D01*
G01X3900Y48542D01*
G01X4240Y48748D02*
G01X4280Y48767D01*
G01X4342Y48829D01*
G01X4342Y48400D01*
G01X11138Y65300D02*
G01X11567Y65300D01*
G01X11138Y65300D02*
G01X11138Y65484D01*
G01X11159Y65544D01*
G01X11178Y65565D01*
G01X11219Y65586D01*
G01X11261Y65586D01*
G01X11301Y65565D01*
G01X11323Y65544D01*
G01X11342Y65484D01*
G01X11342Y65300D01*
G01X11342Y65442D02*
G01X11567Y65586D01*
G01X11240Y65742D02*
G01X11219Y65742D01*
G01X11178Y65761D01*
G01X11159Y65783D01*
G01X11138Y65823D01*
G01X11138Y65905D01*
G01X11159Y65946D01*
G01X11178Y65967D01*
G01X11219Y65986D01*
G01X11261Y65986D01*
G01X11301Y65967D01*
G01X11363Y65926D01*
G01X11567Y65721D01*
G01X11567Y66008D01*
G01X11138Y66700D02*
G01X11567Y66700D01*
G01X11138Y66700D02*
G01X11138Y66884D01*
G01X11159Y66944D01*
G01X11178Y66965D01*
G01X11219Y66986D01*
G01X11261Y66986D01*
G01X11301Y66965D01*
G01X11323Y66944D01*
G01X11342Y66884D01*
G01X11342Y66700D01*
G01X11342Y66842D02*
G01X11567Y66986D01*
G01X11138Y67161D02*
G01X11138Y67386D01*
G01X11301Y67265D01*
G01X11301Y67326D01*
G01X11323Y67367D01*
G01X11342Y67386D01*
G01X11403Y67408D01*
G01X11444Y67408D01*
G01X11507Y67386D01*
G01X11548Y67346D01*
G01X11567Y67284D01*
G01X11567Y67223D01*
G01X11548Y67161D01*
G01X11526Y67142D01*
G01X11486Y67121D01*
G01X9071Y54500D02*
G01X9500Y54500D01*
G01X9071Y54500D02*
G01X9071Y54684D01*
G01X9090Y54744D01*
G01X9111Y54765D01*
G01X9151Y54786D01*
G01X9192Y54786D01*
G01X9234Y54765D01*
G01X9255Y54744D01*
G01X9275Y54684D01*
G01X9275Y54500D01*
G01X9275Y54642D02*
G01X9500Y54786D01*
G01X9071Y55126D02*
G01X9357Y54921D01*
G01X9357Y55228D01*
G01X9071Y55126D02*
G01X9500Y55126D01*
G01X3400Y49829D02*
G01X3400Y49400D01*
G01X3400Y49829D02*
G01X3584Y49829D01*
G01X3644Y49809D01*
G01X3665Y49788D01*
G01X3686Y49748D01*
G01X3686Y49707D01*
G01X3665Y49665D01*
G01X3644Y49644D01*
G01X3584Y49625D01*
G01X3400Y49625D01*
G01X3542Y49625D02*
G01X3686Y49400D01*
G01X4067Y49829D02*
G01X3861Y49829D01*
G01X3842Y49644D01*
G01X3861Y49665D01*
G01X3923Y49686D01*
G01X3984Y49686D01*
G01X4046Y49665D01*
G01X4086Y49625D01*
G01X4107Y49563D01*
G01X4107Y49523D01*
G01X4086Y49461D01*
G01X4046Y49419D01*
G01X3984Y49400D01*
G01X3923Y49400D01*
G01X3861Y49419D01*
G01X3842Y49440D01*
G01X3821Y49482D01*
G01X8171Y50000D02*
G01X8600Y50000D01*
G01X8171Y50000D02*
G01X8171Y50184D01*
G01X8190Y50244D01*
G01X8211Y50265D01*
G01X8251Y50286D01*
G01X8292Y50286D01*
G01X8334Y50265D01*
G01X8355Y50244D01*
G01X8375Y50184D01*
G01X8375Y50000D01*
G01X8375Y50142D02*
G01X8600Y50286D01*
G01X8232Y50667D02*
G01X8190Y50646D01*
G01X8171Y50584D01*
G01X8171Y50544D01*
G01X8190Y50482D01*
G01X8251Y50442D01*
G01X8355Y50421D01*
G01X8457Y50421D01*
G01X8538Y50442D01*
G01X8580Y50482D01*
G01X8600Y50544D01*
G01X8600Y50565D01*
G01X8580Y50626D01*
G01X8538Y50667D01*
G01X8476Y50686D01*
G01X8457Y50686D01*
G01X8396Y50667D01*
G01X8355Y50626D01*
G01X8334Y50565D01*
G01X8334Y50544D01*
G01X8355Y50482D01*
G01X8396Y50442D01*
G01X8457Y50421D01*
G01X2471Y54700D02*
G01X2900Y54700D01*
G01X2471Y54700D02*
G01X2471Y54884D01*
G01X2490Y54944D01*
G01X2511Y54965D01*
G01X2551Y54986D01*
G01X2592Y54986D01*
G01X2634Y54965D01*
G01X2655Y54944D01*
G01X2675Y54884D01*
G01X2675Y54700D01*
G01X2675Y54842D02*
G01X2900Y54986D01*
G01X2471Y55407D02*
G01X2900Y55203D01*
G01X2471Y55121D02*
G01X2471Y55407D01*
G01X2338Y69019D02*
G01X2767Y69019D01*
G01X2338Y69019D02*
G01X2338Y69204D01*
G01X2359Y69265D01*
G01X2378Y69286D01*
G01X2419Y69306D01*
G01X2461Y69306D01*
G01X2501Y69286D01*
G01X2523Y69265D01*
G01X2542Y69204D01*
G01X2542Y69019D01*
G01X2542Y69163D02*
G01X2767Y69306D01*
G01X2419Y69440D02*
G01X2400Y69482D01*
G01X2338Y69544D01*
G01X2767Y69544D01*
G01X10571Y52095D02*
G01X11000Y52095D01*
G01X10571Y52381D02*
G01X10857Y52095D01*
G01X10755Y52197D02*
G01X11000Y52381D01*
G01X10571Y52516D02*
G01X11000Y52516D01*
G01X10571Y52516D02*
G01X10571Y52782D01*
G01X10775Y52516D02*
G01X10775Y52680D01*
G01X11000Y52516D02*
G01X11000Y52782D01*
G01X10571Y52917D02*
G01X10775Y53081D01*
G01X11000Y53081D01*
G01X10571Y53245D02*
G01X10775Y53081D01*
G01X11144Y53380D02*
G01X11144Y53748D01*
G01X10571Y53883D02*
G01X11000Y53883D01*
G01X10571Y53883D02*
G01X10571Y54149D01*
G01X10775Y53883D02*
G01X10775Y54046D01*
G01X10571Y54284D02*
G01X11000Y54284D01*
G01X11000Y54284D02*
G01X11000Y54529D01*
G01X10571Y54828D02*
G01X11000Y54664D01*
G01X10571Y54828D02*
G01X11000Y54991D01*
G01X10857Y54725D02*
G01X10857Y54930D01*
G01X10632Y55413D02*
G01X10591Y55372D01*
G01X10571Y55310D01*
G01X10571Y55229D01*
G01X10591Y55167D01*
G01X10632Y55126D01*
G01X10673Y55126D01*
G01X10714Y55147D01*
G01X10734Y55167D01*
G01X10755Y55208D01*
G01X10796Y55331D01*
G01X10816Y55372D01*
G01X10837Y55392D01*
G01X10878Y55413D01*
G01X10939Y55413D01*
G01X10980Y55372D01*
G01X11000Y55310D01*
G01X11000Y55229D01*
G01X10980Y55167D01*
G01X10939Y55126D01*
G01X10571Y55548D02*
G01X11000Y55548D01*
G01X10571Y55834D02*
G01X11000Y55834D01*
G01X10775Y55548D02*
G01X10775Y55834D01*
G01X1937Y51904D02*
G01X2366Y51904D01*
G01X1937Y52190D02*
G01X2223Y51904D01*
G01X2121Y52006D02*
G01X2366Y52190D01*
G01X1937Y52325D02*
G01X2366Y52325D01*
G01X1937Y52325D02*
G01X1937Y52591D01*
G01X2141Y52325D02*
G01X2141Y52489D01*
G01X2366Y52325D02*
G01X2366Y52591D01*
G01X1937Y52726D02*
G01X2141Y52890D01*
G01X2366Y52890D01*
G01X1937Y53054D02*
G01X2141Y52890D01*
G01X2510Y53189D02*
G01X2510Y53557D01*
G01X1937Y53692D02*
G01X2366Y53692D01*
G01X1937Y53692D02*
G01X1937Y53876D01*
G01X1957Y53937D01*
G01X1978Y53958D01*
G01X2019Y53978D01*
G01X2060Y53978D01*
G01X2100Y53958D01*
G01X2121Y53937D01*
G01X2141Y53876D01*
G01X2141Y53692D01*
G01X2141Y53835D02*
G01X2366Y53978D01*
G01X1998Y54399D02*
G01X1957Y54359D01*
G01X1937Y54297D01*
G01X1937Y54215D01*
G01X1957Y54154D01*
G01X1998Y54113D01*
G01X2039Y54113D01*
G01X2080Y54134D01*
G01X2100Y54154D01*
G01X2121Y54195D01*
G01X2162Y54318D01*
G01X2182Y54359D01*
G01X2203Y54379D01*
G01X2244Y54399D01*
G01X2305Y54399D01*
G01X2346Y54359D01*
G01X2366Y54297D01*
G01X2366Y54215D01*
G01X2346Y54154D01*
G01X2305Y54113D01*
G01X1937Y54678D02*
G01X2366Y54678D01*
G01X1937Y54534D02*
G01X1937Y54821D01*
G01X5682Y51500D02*
G01X5990Y51500D01*
G01X6051Y51519D01*
G01X6092Y51561D01*
G01X6113Y51623D01*
G01X6113Y51663D01*
G01X6092Y51725D01*
G01X6051Y51765D01*
G01X5990Y51786D01*
G01X5682Y51786D01*
G01X5682Y52126D02*
G01X5969Y51921D01*
G01X5969Y52228D01*
G01X5682Y52126D02*
G01X6113Y52126D01*
G01X6500Y54129D02*
G01X6500Y53700D01*
G01X6500Y54129D02*
G01X6684Y54129D01*
G01X6744Y54109D01*
G01X6765Y54088D01*
G01X6786Y54048D01*
G01X6786Y54007D01*
G01X6765Y53965D01*
G01X6744Y53944D01*
G01X6684Y53925D01*
G01X6500Y53925D01*
G01X6642Y53925D02*
G01X6786Y53700D01*
G01X7023Y54129D02*
G01X6961Y54109D01*
G01X6942Y54067D01*
G01X6942Y54027D01*
G01X6961Y53986D01*
G01X7003Y53965D01*
G01X7084Y53944D01*
G01X7146Y53925D01*
G01X7186Y53884D01*
G01X7207Y53842D01*
G01X7207Y53782D01*
G01X7186Y53740D01*
G01X7167Y53719D01*
G01X7105Y53700D01*
G01X7023Y53700D01*
G01X6961Y53719D01*
G01X6942Y53740D01*
G01X6921Y53782D01*
G01X6921Y53842D01*
G01X6942Y53884D01*
G01X6982Y53925D01*
G01X7044Y53944D01*
G01X7126Y53965D01*
G01X7167Y53986D01*
G01X7186Y54027D01*
G01X7186Y54067D01*
G01X7167Y54109D01*
G01X7105Y54129D01*
G01X7023Y54129D01*
G01X5418Y25000D02*
G01X5848Y25000D01*
G01X5848Y25000D02*
G01X5848Y25244D01*
G01X5418Y25380D02*
G01X5848Y25380D01*
G01X5418Y25380D02*
G01X5418Y25646D01*
G01X5623Y25380D02*
G01X5623Y25544D01*
G01X5848Y25380D02*
G01X5848Y25646D01*
G01X5418Y25780D02*
G01X5848Y25780D01*
G01X5418Y25780D02*
G01X5418Y25925D01*
G01X5439Y25986D01*
G01X5480Y26027D01*
G01X5521Y26046D01*
G01X5582Y26067D01*
G01X5684Y26067D01*
G01X5746Y26046D01*
G01X5787Y26027D01*
G01X5827Y25986D01*
G01X5848Y25925D01*
G01X5848Y25780D01*
G01X5521Y26223D02*
G01X5500Y26223D01*
G01X5459Y26244D01*
G01X5439Y26263D01*
G01X5418Y26305D01*
G01X5418Y26386D01*
G01X5439Y26428D01*
G01X5459Y26448D01*
G01X5500Y26469D01*
G01X5541Y26469D01*
G01X5582Y26448D01*
G01X5643Y26407D01*
G01X5848Y26203D01*
G01X5848Y26488D01*
G01X5418Y27500D02*
G01X5848Y27500D01*
G01X5848Y27500D02*
G01X5848Y27744D01*
G01X5418Y27880D02*
G01X5848Y27880D01*
G01X5418Y27880D02*
G01X5418Y28146D01*
G01X5623Y27880D02*
G01X5623Y28044D01*
G01X5848Y27880D02*
G01X5848Y28146D01*
G01X5418Y28280D02*
G01X5848Y28280D01*
G01X5418Y28280D02*
G01X5418Y28425D01*
G01X5439Y28486D01*
G01X5480Y28527D01*
G01X5521Y28546D01*
G01X5582Y28567D01*
G01X5684Y28567D01*
G01X5746Y28546D01*
G01X5787Y28527D01*
G01X5827Y28486D01*
G01X5848Y28425D01*
G01X5848Y28280D01*
G01X5418Y28744D02*
G01X5418Y28969D01*
G01X5582Y28846D01*
G01X5582Y28907D01*
G01X5602Y28948D01*
G01X5623Y28969D01*
G01X5684Y28988D01*
G01X5725Y28988D01*
G01X5787Y28969D01*
G01X5827Y28928D01*
G01X5848Y28865D01*
G01X5848Y28805D01*
G01X5827Y28744D01*
G01X5807Y28723D01*
G01X5766Y28703D01*
G01X5418Y30000D02*
G01X5848Y30000D01*
G01X5848Y30000D02*
G01X5848Y30244D01*
G01X5418Y30380D02*
G01X5848Y30380D01*
G01X5418Y30380D02*
G01X5418Y30646D01*
G01X5623Y30380D02*
G01X5623Y30544D01*
G01X5848Y30380D02*
G01X5848Y30646D01*
G01X5418Y30780D02*
G01X5848Y30780D01*
G01X5418Y30780D02*
G01X5418Y30925D01*
G01X5439Y30986D01*
G01X5480Y31027D01*
G01X5521Y31046D01*
G01X5582Y31067D01*
G01X5684Y31067D01*
G01X5746Y31046D01*
G01X5787Y31027D01*
G01X5827Y30986D01*
G01X5848Y30925D01*
G01X5848Y30780D01*
G01X5418Y31407D02*
G01X5705Y31203D01*
G01X5705Y31509D01*
G01X5418Y31407D02*
G01X5848Y31407D01*
G01X5418Y10000D02*
G01X5848Y10000D01*
G01X5848Y10000D02*
G01X5848Y10244D01*
G01X5418Y10380D02*
G01X5848Y10380D01*
G01X5418Y10380D02*
G01X5418Y10646D01*
G01X5623Y10380D02*
G01X5623Y10544D01*
G01X5848Y10380D02*
G01X5848Y10646D01*
G01X5418Y10780D02*
G01X5848Y10780D01*
G01X5418Y10780D02*
G01X5418Y10925D01*
G01X5439Y10986D01*
G01X5480Y11026D01*
G01X5521Y11046D01*
G01X5582Y11067D01*
G01X5684Y11067D01*
G01X5746Y11046D01*
G01X5787Y11026D01*
G01X5827Y10986D01*
G01X5848Y10925D01*
G01X5848Y10780D01*
G01X5418Y11448D02*
G01X5418Y11244D01*
G01X5602Y11223D01*
G01X5582Y11244D01*
G01X5562Y11305D01*
G01X5562Y11365D01*
G01X5582Y11428D01*
G01X5623Y11469D01*
G01X5684Y11488D01*
G01X5725Y11488D01*
G01X5787Y11469D01*
G01X5827Y11428D01*
G01X5848Y11365D01*
G01X5848Y11305D01*
G01X5827Y11244D01*
G01X5807Y11223D01*
G01X5766Y11203D01*
G01X5418Y7500D02*
G01X5848Y7500D01*
G01X5848Y7500D02*
G01X5848Y7744D01*
G01X5418Y7880D02*
G01X5848Y7880D01*
G01X5418Y7880D02*
G01X5418Y8146D01*
G01X5623Y7880D02*
G01X5623Y8044D01*
G01X5848Y7880D02*
G01X5848Y8146D01*
G01X5418Y8280D02*
G01X5848Y8280D01*
G01X5418Y8280D02*
G01X5418Y8425D01*
G01X5439Y8486D01*
G01X5480Y8526D01*
G01X5521Y8546D01*
G01X5582Y8567D01*
G01X5684Y8567D01*
G01X5746Y8546D01*
G01X5787Y8526D01*
G01X5827Y8486D01*
G01X5848Y8425D01*
G01X5848Y8280D01*
G01X5480Y8948D02*
G01X5439Y8928D01*
G01X5418Y8865D01*
G01X5418Y8825D01*
G01X5439Y8763D01*
G01X5500Y8723D01*
G01X5602Y8703D01*
G01X5705Y8703D01*
G01X5787Y8723D01*
G01X5827Y8763D01*
G01X5848Y8825D01*
G01X5848Y8846D01*
G01X5827Y8907D01*
G01X5787Y8948D01*
G01X5725Y8969D01*
G01X5705Y8969D01*
G01X5643Y8948D01*
G01X5602Y8907D01*
G01X5582Y8846D01*
G01X5582Y8825D01*
G01X5602Y8763D01*
G01X5643Y8723D01*
G01X5705Y8703D01*
G01X5418Y5000D02*
G01X5848Y5000D01*
G01X5848Y5000D02*
G01X5848Y5244D01*
G01X5418Y5380D02*
G01X5848Y5380D01*
G01X5418Y5380D02*
G01X5418Y5646D01*
G01X5623Y5380D02*
G01X5623Y5544D01*
G01X5848Y5380D02*
G01X5848Y5646D01*
G01X5418Y5780D02*
G01X5848Y5780D01*
G01X5418Y5780D02*
G01X5418Y5925D01*
G01X5439Y5986D01*
G01X5480Y6026D01*
G01X5521Y6046D01*
G01X5582Y6067D01*
G01X5684Y6067D01*
G01X5746Y6046D01*
G01X5787Y6026D01*
G01X5827Y5986D01*
G01X5848Y5925D01*
G01X5848Y5780D01*
G01X5418Y6488D02*
G01X5848Y6284D01*
G01X5418Y6203D02*
G01X5418Y6488D01*
G01X5418Y2500D02*
G01X5848Y2500D01*
G01X5848Y2500D02*
G01X5848Y2744D01*
G01X5418Y2880D02*
G01X5848Y2880D01*
G01X5418Y2880D02*
G01X5418Y3146D01*
G01X5623Y2880D02*
G01X5623Y3044D01*
G01X5848Y2880D02*
G01X5848Y3146D01*
G01X5418Y3280D02*
G01X5848Y3280D01*
G01X5418Y3280D02*
G01X5418Y3425D01*
G01X5439Y3486D01*
G01X5480Y3526D01*
G01X5521Y3546D01*
G01X5582Y3567D01*
G01X5684Y3567D01*
G01X5746Y3546D01*
G01X5787Y3526D01*
G01X5827Y3486D01*
G01X5848Y3425D01*
G01X5848Y3280D01*
G01X5418Y3805D02*
G01X5439Y3744D01*
G01X5480Y3723D01*
G01X5521Y3723D01*
G01X5562Y3744D01*
G01X5582Y3784D01*
G01X5602Y3865D01*
G01X5623Y3928D01*
G01X5664Y3969D01*
G01X5705Y3988D01*
G01X5766Y3988D01*
G01X5807Y3969D01*
G01X5827Y3948D01*
G01X5848Y3886D01*
G01X5848Y3805D01*
G01X5827Y3744D01*
G01X5807Y3723D01*
G01X5766Y3703D01*
G01X5705Y3703D01*
G01X5664Y3723D01*
G01X5623Y3763D01*
G01X5602Y3825D01*
G01X5582Y3907D01*
G01X5562Y3948D01*
G01X5521Y3969D01*
G01X5480Y3969D01*
G01X5439Y3948D01*
G01X5418Y3886D01*
G01X5418Y3805D01*
G01X5418Y40000D02*
G01X5848Y40000D01*
G01X5848Y40000D02*
G01X5848Y40244D01*
G01X5418Y40380D02*
G01X5848Y40380D01*
G01X5418Y40380D02*
G01X5418Y40646D01*
G01X5623Y40380D02*
G01X5623Y40544D01*
G01X5848Y40380D02*
G01X5848Y40646D01*
G01X5418Y40780D02*
G01X5848Y40780D01*
G01X5418Y40780D02*
G01X5418Y40925D01*
G01X5439Y40986D01*
G01X5480Y41027D01*
G01X5521Y41046D01*
G01X5582Y41067D01*
G01X5684Y41067D01*
G01X5746Y41046D01*
G01X5787Y41027D01*
G01X5827Y40986D01*
G01X5848Y40925D01*
G01X5848Y40780D01*
G01X5562Y41469D02*
G01X5623Y41448D01*
G01X5664Y41407D01*
G01X5684Y41346D01*
G01X5684Y41325D01*
G01X5664Y41263D01*
G01X5623Y41223D01*
G01X5562Y41203D01*
G01X5541Y41203D01*
G01X5480Y41223D01*
G01X5439Y41263D01*
G01X5418Y41325D01*
G01X5418Y41346D01*
G01X5439Y41407D01*
G01X5480Y41448D01*
G01X5562Y41469D01*
G01X5664Y41469D01*
G01X5766Y41448D01*
G01X5827Y41407D01*
G01X5848Y41346D01*
G01X5848Y41305D01*
G01X5827Y41244D01*
G01X5787Y41223D01*
G01X5418Y37500D02*
G01X5848Y37500D01*
G01X5848Y37500D02*
G01X5848Y37744D01*
G01X5418Y37880D02*
G01X5848Y37880D01*
G01X5418Y37880D02*
G01X5418Y38146D01*
G01X5623Y37880D02*
G01X5623Y38044D01*
G01X5848Y37880D02*
G01X5848Y38146D01*
G01X5418Y38280D02*
G01X5848Y38280D01*
G01X5418Y38280D02*
G01X5418Y38425D01*
G01X5439Y38486D01*
G01X5480Y38527D01*
G01X5521Y38546D01*
G01X5582Y38567D01*
G01X5684Y38567D01*
G01X5746Y38546D01*
G01X5787Y38527D01*
G01X5827Y38486D01*
G01X5848Y38425D01*
G01X5848Y38280D01*
G01X5500Y38703D02*
G01X5480Y38744D01*
G01X5418Y38805D01*
G01X5848Y38805D01*
G01X5418Y39063D02*
G01X5439Y39001D01*
G01X5500Y38959D01*
G01X5602Y38940D01*
G01X5664Y38940D01*
G01X5766Y38959D01*
G01X5827Y39001D01*
G01X5848Y39063D01*
G01X5848Y39104D01*
G01X5827Y39165D01*
G01X5766Y39205D01*
G01X5664Y39226D01*
G01X5602Y39226D01*
G01X5500Y39205D01*
G01X5439Y39165D01*
G01X5418Y39104D01*
G01X5418Y39063D01*
G01X5418Y35000D02*
G01X5848Y35000D01*
G01X5848Y35000D02*
G01X5848Y35244D01*
G01X5418Y35380D02*
G01X5848Y35380D01*
G01X5418Y35380D02*
G01X5418Y35646D01*
G01X5623Y35380D02*
G01X5623Y35544D01*
G01X5848Y35380D02*
G01X5848Y35646D01*
G01X5418Y35780D02*
G01X5848Y35780D01*
G01X5418Y35780D02*
G01X5418Y35925D01*
G01X5439Y35986D01*
G01X5480Y36027D01*
G01X5521Y36046D01*
G01X5582Y36067D01*
G01X5684Y36067D01*
G01X5746Y36046D01*
G01X5787Y36027D01*
G01X5827Y35986D01*
G01X5848Y35925D01*
G01X5848Y35780D01*
G01X5500Y36203D02*
G01X5480Y36244D01*
G01X5418Y36305D01*
G01X5848Y36305D01*
G01X5500Y36440D02*
G01X5480Y36480D01*
G01X5418Y36542D01*
G01X5848Y36542D01*
G01X5418Y32500D02*
G01X5848Y32500D01*
G01X5848Y32500D02*
G01X5848Y32744D01*
G01X5418Y32880D02*
G01X5848Y32880D01*
G01X5418Y32880D02*
G01X5418Y33146D01*
G01X5623Y32880D02*
G01X5623Y33044D01*
G01X5848Y32880D02*
G01X5848Y33146D01*
G01X5418Y33280D02*
G01X5848Y33280D01*
G01X5418Y33280D02*
G01X5418Y33425D01*
G01X5439Y33486D01*
G01X5480Y33527D01*
G01X5521Y33546D01*
G01X5582Y33567D01*
G01X5684Y33567D01*
G01X5746Y33546D01*
G01X5787Y33527D01*
G01X5827Y33486D01*
G01X5848Y33425D01*
G01X5848Y33280D01*
G01X5500Y33703D02*
G01X5480Y33744D01*
G01X5418Y33805D01*
G01X5848Y33805D01*
G01X5521Y33959D02*
G01X5500Y33959D01*
G01X5459Y33980D01*
G01X5439Y34001D01*
G01X5418Y34042D01*
G01X5418Y34123D01*
G01X5439Y34165D01*
G01X5459Y34184D01*
G01X5500Y34205D01*
G01X5541Y34205D01*
G01X5582Y34184D01*
G01X5643Y34144D01*
G01X5848Y33940D01*
G01X5848Y34226D01*
G01X5418Y12500D02*
G01X5848Y12500D01*
G01X5848Y12500D02*
G01X5848Y12744D01*
G01X5418Y12880D02*
G01X5848Y12880D01*
G01X5418Y12880D02*
G01X5418Y13146D01*
G01X5623Y12880D02*
G01X5623Y13044D01*
G01X5848Y12880D02*
G01X5848Y13146D01*
G01X5418Y13280D02*
G01X5848Y13280D01*
G01X5418Y13280D02*
G01X5418Y13425D01*
G01X5439Y13486D01*
G01X5480Y13526D01*
G01X5521Y13546D01*
G01X5582Y13567D01*
G01X5684Y13567D01*
G01X5746Y13546D01*
G01X5787Y13526D01*
G01X5827Y13486D01*
G01X5848Y13425D01*
G01X5848Y13280D01*
G01X5500Y13703D02*
G01X5480Y13744D01*
G01X5418Y13805D01*
G01X5848Y13805D01*
G01X5418Y13980D02*
G01X5418Y14205D01*
G01X5582Y14082D01*
G01X5582Y14144D01*
G01X5602Y14184D01*
G01X5623Y14205D01*
G01X5684Y14226D01*
G01X5725Y14226D01*
G01X5787Y14205D01*
G01X5827Y14165D01*
G01X5848Y14103D01*
G01X5848Y14042D01*
G01X5827Y13980D01*
G01X5807Y13959D01*
G01X5766Y13940D01*
G01X5418Y15000D02*
G01X5848Y15000D01*
G01X5848Y15000D02*
G01X5848Y15244D01*
G01X5418Y15380D02*
G01X5848Y15380D01*
G01X5418Y15380D02*
G01X5418Y15646D01*
G01X5623Y15380D02*
G01X5623Y15544D01*
G01X5848Y15380D02*
G01X5848Y15646D01*
G01X5418Y15780D02*
G01X5848Y15780D01*
G01X5418Y15780D02*
G01X5418Y15925D01*
G01X5439Y15986D01*
G01X5480Y16026D01*
G01X5521Y16046D01*
G01X5582Y16067D01*
G01X5684Y16067D01*
G01X5746Y16046D01*
G01X5787Y16026D01*
G01X5827Y15986D01*
G01X5848Y15925D01*
G01X5848Y15780D01*
G01X5500Y16203D02*
G01X5480Y16244D01*
G01X5418Y16305D01*
G01X5848Y16305D01*
G01X5418Y16644D02*
G01X5705Y16440D01*
G01X5705Y16746D01*
G01X5418Y16644D02*
G01X5848Y16644D01*
G01X5418Y17500D02*
G01X5848Y17500D01*
G01X5848Y17500D02*
G01X5848Y17744D01*
G01X5418Y17880D02*
G01X5848Y17880D01*
G01X5418Y17880D02*
G01X5418Y18146D01*
G01X5623Y17880D02*
G01X5623Y18044D01*
G01X5848Y17880D02*
G01X5848Y18146D01*
G01X5418Y18280D02*
G01X5848Y18280D01*
G01X5418Y18280D02*
G01X5418Y18425D01*
G01X5439Y18486D01*
G01X5480Y18527D01*
G01X5521Y18546D01*
G01X5582Y18567D01*
G01X5684Y18567D01*
G01X5746Y18546D01*
G01X5787Y18527D01*
G01X5827Y18486D01*
G01X5848Y18425D01*
G01X5848Y18280D01*
G01X5500Y18703D02*
G01X5480Y18744D01*
G01X5418Y18805D01*
G01X5848Y18805D01*
G01X5418Y19184D02*
G01X5418Y18980D01*
G01X5602Y18959D01*
G01X5582Y18980D01*
G01X5562Y19042D01*
G01X5562Y19103D01*
G01X5582Y19165D01*
G01X5623Y19205D01*
G01X5684Y19226D01*
G01X5725Y19226D01*
G01X5787Y19205D01*
G01X5827Y19165D01*
G01X5848Y19103D01*
G01X5848Y19042D01*
G01X5827Y18980D01*
G01X5807Y18959D01*
G01X5766Y18940D01*
G01X5418Y20000D02*
G01X5848Y20000D01*
G01X5848Y20000D02*
G01X5848Y20244D01*
G01X5418Y20380D02*
G01X5848Y20380D01*
G01X5418Y20380D02*
G01X5418Y20646D01*
G01X5623Y20380D02*
G01X5623Y20544D01*
G01X5848Y20380D02*
G01X5848Y20646D01*
G01X5418Y20780D02*
G01X5848Y20780D01*
G01X5418Y20780D02*
G01X5418Y20925D01*
G01X5439Y20986D01*
G01X5480Y21027D01*
G01X5521Y21046D01*
G01X5582Y21067D01*
G01X5684Y21067D01*
G01X5746Y21046D01*
G01X5787Y21027D01*
G01X5827Y20986D01*
G01X5848Y20925D01*
G01X5848Y20780D01*
G01X5500Y21203D02*
G01X5480Y21244D01*
G01X5418Y21305D01*
G01X5848Y21305D01*
G01X5480Y21684D02*
G01X5439Y21665D01*
G01X5418Y21603D01*
G01X5418Y21563D01*
G01X5439Y21501D01*
G01X5500Y21459D01*
G01X5602Y21440D01*
G01X5705Y21440D01*
G01X5787Y21459D01*
G01X5827Y21501D01*
G01X5848Y21563D01*
G01X5848Y21582D01*
G01X5827Y21644D01*
G01X5787Y21684D01*
G01X5725Y21705D01*
G01X5705Y21705D01*
G01X5643Y21684D01*
G01X5602Y21644D01*
G01X5582Y21582D01*
G01X5582Y21563D01*
G01X5602Y21501D01*
G01X5643Y21459D01*
G01X5705Y21440D01*
G01X4723Y46857D02*
G01X4682Y46836D01*
G01X4640Y46794D01*
G01X4621Y46755D01*
G01X4621Y46673D01*
G01X4640Y46632D01*
G01X4682Y46590D01*
G01X4723Y46569D01*
G01X4784Y46550D01*
G01X4886Y46550D01*
G01X4948Y46569D01*
G01X4988Y46590D01*
G01X5030Y46632D01*
G01X5050Y46673D01*
G01X5050Y46755D01*
G01X5030Y46794D01*
G01X4988Y46836D01*
G01X4948Y46857D01*
G01X4701Y46992D02*
G01X4682Y47032D01*
G01X4621Y47094D01*
G01X5050Y47094D01*
G01X5423Y46857D02*
G01X5382Y46836D01*
G01X5340Y46794D01*
G01X5321Y46755D01*
G01X5321Y46673D01*
G01X5340Y46632D01*
G01X5382Y46590D01*
G01X5423Y46569D01*
G01X5484Y46550D01*
G01X5586Y46550D01*
G01X5648Y46569D01*
G01X5688Y46590D01*
G01X5730Y46632D01*
G01X5750Y46673D01*
G01X5750Y46755D01*
G01X5730Y46794D01*
G01X5688Y46836D01*
G01X5648Y46857D01*
G01X5423Y47011D02*
G01X5401Y47011D01*
G01X5361Y47032D01*
G01X5340Y47053D01*
G01X5321Y47094D01*
G01X5321Y47176D01*
G01X5340Y47217D01*
G01X5361Y47236D01*
G01X5401Y47257D01*
G01X5442Y47257D01*
G01X5484Y47236D01*
G01X5546Y47196D01*
G01X5750Y46992D01*
G01X5750Y47278D01*
G01X7257Y48059D02*
G01X7236Y48100D01*
G01X7194Y48140D01*
G01X7155Y48161D01*
G01X7073Y48161D01*
G01X7032Y48140D01*
G01X6990Y48100D01*
G01X6969Y48059D01*
G01X6950Y47998D01*
G01X6950Y47896D01*
G01X6969Y47834D01*
G01X6990Y47792D01*
G01X7032Y47752D01*
G01X7073Y47732D01*
G01X7155Y47732D01*
G01X7194Y47752D01*
G01X7236Y47792D01*
G01X7257Y47834D01*
G01X7432Y48161D02*
G01X7657Y48161D01*
G01X7534Y47998D01*
G01X7596Y47998D01*
G01X7636Y47977D01*
G01X7657Y47957D01*
G01X7678Y47896D01*
G01X7678Y47855D01*
G01X7657Y47792D01*
G01X7617Y47752D01*
G01X7555Y47732D01*
G01X7494Y47732D01*
G01X7432Y47752D01*
G01X7411Y47773D01*
G01X7392Y47813D01*
G01X7286Y49057D02*
G01X7265Y49098D01*
G01X7225Y49139D01*
G01X7184Y49159D01*
G01X7103Y49159D01*
G01X7061Y49139D01*
G01X7021Y49098D01*
G01X7000Y49057D01*
G01X6980Y48996D01*
G01X6980Y48894D01*
G01X7000Y48832D01*
G01X7021Y48791D01*
G01X7061Y48750D01*
G01X7103Y48730D01*
G01X7184Y48730D01*
G01X7225Y48750D01*
G01X7265Y48791D01*
G01X7286Y48832D01*
G01X7626Y49159D02*
G01X7421Y48873D01*
G01X7728Y48873D01*
G01X7626Y49159D02*
G01X7626Y48730D01*
G01X11340Y63092D02*
G01X11769Y63092D01*
G01X11340Y63092D02*
G01X11340Y63277D01*
G01X11360Y63338D01*
G01X11380Y63359D01*
G01X11421Y63379D01*
G01X11462Y63379D01*
G01X11503Y63359D01*
G01X11524Y63338D01*
G01X11544Y63277D01*
G01X11544Y63092D01*
G01X11544Y63236D02*
G01X11769Y63379D01*
G01X11340Y63513D02*
G01X11769Y63513D01*
G01X11340Y63513D02*
G01X11340Y63698D01*
G01X11360Y63759D01*
G01X11380Y63780D01*
G01X11421Y63801D01*
G01X11462Y63801D01*
G01X11503Y63780D01*
G01X11524Y63759D01*
G01X11544Y63698D01*
G01X11544Y63513D01*
G01X11544Y63657D02*
G01X11769Y63801D01*
G01X11340Y63936D02*
G01X11769Y63936D01*
G01X11340Y63936D02*
G01X11340Y64202D01*
G01X11544Y63936D02*
G01X11544Y64098D01*
G01X11769Y63936D02*
G01X11769Y64202D01*
G01X11340Y64336D02*
G01X11769Y64336D01*
G01X11340Y64336D02*
G01X11340Y64603D01*
G01X11544Y64336D02*
G01X11544Y64500D01*
G01X11421Y64738D02*
G01X11401Y64778D01*
G01X11340Y64840D01*
G01X11769Y64840D01*
G01X11138Y58400D02*
G01X11567Y58400D01*
G01X11138Y58400D02*
G01X11138Y58584D01*
G01X11159Y58644D01*
G01X11178Y58665D01*
G01X11219Y58686D01*
G01X11261Y58686D01*
G01X11301Y58665D01*
G01X11323Y58644D01*
G01X11342Y58584D01*
G01X11342Y58400D01*
G01X11342Y58542D02*
G01X11567Y58686D01*
G01X11138Y58821D02*
G01X11567Y58821D01*
G01X11138Y58821D02*
G01X11138Y59005D01*
G01X11159Y59067D01*
G01X11178Y59086D01*
G01X11219Y59107D01*
G01X11261Y59107D01*
G01X11301Y59086D01*
G01X11323Y59067D01*
G01X11342Y59005D01*
G01X11342Y58821D01*
G01X11342Y58965D02*
G01X11567Y59107D01*
G01X11138Y59242D02*
G01X11567Y59242D01*
G01X11138Y59242D02*
G01X11138Y59509D01*
G01X11342Y59242D02*
G01X11342Y59405D01*
G01X11567Y59242D02*
G01X11567Y59509D01*
G01X11138Y59644D02*
G01X11567Y59644D01*
G01X11138Y59644D02*
G01X11138Y59909D01*
G01X11342Y59644D02*
G01X11342Y59807D01*
G01X11240Y60065D02*
G01X11219Y60065D01*
G01X11178Y60084D01*
G01X11159Y60105D01*
G01X11138Y60146D01*
G01X11138Y60229D01*
G01X11159Y60269D01*
G01X11178Y60290D01*
G01X11219Y60309D01*
G01X11261Y60309D01*
G01X11301Y60290D01*
G01X11363Y60248D01*
G01X11567Y60044D01*
G01X11567Y60330D01*
G01X8373Y61900D02*
G01X8680Y61900D01*
G01X8740Y61919D01*
G01X8782Y61961D01*
G01X8803Y62023D01*
G01X8803Y62063D01*
G01X8782Y62125D01*
G01X8740Y62165D01*
G01X8680Y62186D01*
G01X8373Y62186D01*
G01X8455Y62321D02*
G01X8434Y62361D01*
G01X8373Y62423D01*
G01X8803Y62423D01*
G01X8373Y56300D02*
G01X8680Y56300D01*
G01X8740Y56319D01*
G01X8782Y56361D01*
G01X8803Y56423D01*
G01X8803Y56463D01*
G01X8782Y56525D01*
G01X8740Y56565D01*
G01X8680Y56586D01*
G01X8373Y56586D01*
G01X8373Y56967D02*
G01X8373Y56761D01*
G01X8557Y56742D01*
G01X8536Y56761D01*
G01X8515Y56823D01*
G01X8515Y56884D01*
G01X8536Y56946D01*
G01X8578Y56986D01*
G01X8638Y57007D01*
G01X8680Y57007D01*
G01X8740Y56986D01*
G01X8782Y56946D01*
G01X8803Y56884D01*
G01X8803Y56823D01*
G01X8782Y56761D01*
G01X8761Y56742D01*
G01X8721Y56721D01*
G54D10*
G75*
G01X6894Y22500D02*
G03X6894Y22500I-394J0D01*
G01*
G75*
G01X7130Y23445D02*
G03X7130Y23445I-39J0D01*
G01*
G75*
G01X10045Y52002D02*
G03X10045Y52002I-246J0D01*
G01*
G75*
G01X3447Y51998D02*
G03X3447Y51998I-246J0D01*
G01*
G75*
G01X6894Y25000D02*
G03X6894Y25000I-394J0D01*
G01*
G75*
G01X7130Y25945D02*
G03X7130Y25945I-39J0D01*
G01*
G75*
G01X6894Y27500D02*
G03X6894Y27500I-394J0D01*
G01*
G75*
G01X7130Y28445D02*
G03X7130Y28445I-39J0D01*
G01*
G75*
G01X6894Y30000D02*
G03X6894Y30000I-394J0D01*
G01*
G75*
G01X7130Y30945D02*
G03X7130Y30945I-39J0D01*
G01*
G75*
G01X6894Y10000D02*
G03X6894Y10000I-394J0D01*
G01*
G75*
G01X7130Y10945D02*
G03X7130Y10945I-39J0D01*
G01*
G75*
G01X6894Y7500D02*
G03X6894Y7500I-394J0D01*
G01*
G75*
G01X7130Y8445D02*
G03X7130Y8445I-39J0D01*
G01*
G75*
G01X6894Y5000D02*
G03X6894Y5000I-394J0D01*
G01*
G75*
G01X7130Y5945D02*
G03X7130Y5945I-39J0D01*
G01*
G75*
G01X6894Y2500D02*
G03X6894Y2500I-394J0D01*
G01*
G75*
G01X7130Y3445D02*
G03X7130Y3445I-39J0D01*
G01*
G75*
G01X6894Y40000D02*
G03X6894Y40000I-394J0D01*
G01*
G75*
G01X7130Y40945D02*
G03X7130Y40945I-39J0D01*
G01*
G75*
G01X6894Y37500D02*
G03X6894Y37500I-394J0D01*
G01*
G75*
G01X7130Y38445D02*
G03X7130Y38445I-39J0D01*
G01*
G75*
G01X6894Y35000D02*
G03X6894Y35000I-394J0D01*
G01*
G75*
G01X7130Y35945D02*
G03X7130Y35945I-39J0D01*
G01*
G75*
G01X6894Y32500D02*
G03X6894Y32500I-394J0D01*
G01*
G75*
G01X7130Y33445D02*
G03X7130Y33445I-39J0D01*
G01*
G75*
G01X6894Y12500D02*
G03X6894Y12500I-394J0D01*
G01*
G75*
G01X7130Y13445D02*
G03X7130Y13445I-39J0D01*
G01*
G75*
G01X6894Y15000D02*
G03X6894Y15000I-394J0D01*
G01*
G75*
G01X7130Y15945D02*
G03X7130Y15945I-39J0D01*
G01*
G75*
G01X6894Y17500D02*
G03X6894Y17500I-394J0D01*
G01*
G75*
G01X7130Y18445D02*
G03X7130Y18445I-39J0D01*
G01*
G75*
G01X6894Y20000D02*
G03X6894Y20000I-394J0D01*
G01*
G75*
G01X7130Y20945D02*
G03X7130Y20945I-39J0D01*
G01*
G75*
G01X5610Y63690D02*
G03X5610Y63690I-130J0D01*
G01*
G75*
G01X5610Y58090D02*
G03X5610Y58090I-130J0D01*
G01*
M00*
M02*
