G04 Layer: TopPasteMaskLayer*
G04 EasyEDA v6.3.43, 2020-06-07T13:11:06+08:00*
G04 57be81840bc34c5ebe362b8f785087f4,10*
G04 Gerber Generator version 0.2*
G04 Scale: 100 percent, Rotated: No, Reflected: No *
G04 Dimensions in inches *
G04 leading zeros omitted , absolute positions ,2 integer and 4 decimal *
%FSLAX24Y24*%
%MOIN*%
G90*
G70D02*

%ADD19R,0.079200X0.039900*%
%ADD23R,0.040000X0.036000*%
%ADD24R,0.036000X0.040000*%
%ADD26R,0.070900X0.011800*%
%ADD27R,0.204700X0.433100*%

%LPD*%
G54D19*
G01X9650Y65444D03*
G01X9650Y66224D03*
G01X9650Y67014D03*
G01X9650Y67804D03*
G01X9650Y68594D03*
G01X9650Y69374D03*
G01X9650Y70164D03*
G01X9650Y70954D03*
G01X3350Y70954D03*
G01X3350Y70164D03*
G01X3350Y69374D03*
G01X3350Y68594D03*
G01X3350Y67804D03*
G01X3350Y67014D03*
G01X3350Y66224D03*
G01X3350Y65444D03*
G36*
G01X6617Y22794D02*
G01X6617Y23307D01*
G01X7011Y23307D01*
G01X7011Y22794D01*
G01X6617Y22794D01*
G37*
G36*
G01X6617Y21692D02*
G01X6617Y22205D01*
G01X7011Y22205D01*
G01X7011Y21692D01*
G01X6617Y21692D01*
G37*
G36*
G01X5987Y21692D02*
G01X5987Y22205D01*
G01X6381Y22205D01*
G01X6381Y21692D01*
G01X5987Y21692D01*
G37*
G36*
G01X5987Y22794D02*
G01X5987Y23307D01*
G01X6381Y23307D01*
G01X6381Y22794D01*
G01X5987Y22794D01*
G37*
G36*
G01X8896Y46298D02*
G01X9684Y46298D01*
G01X9684Y44802D01*
G01X8896Y44802D01*
G01X8896Y46298D01*
G37*
G36*
G01X6416Y45844D02*
G01X7203Y45844D01*
G01X7203Y45255D01*
G01X6416Y45255D01*
G01X6416Y45844D01*
G37*
G36*
G01X6416Y44940D02*
G01X7203Y44940D01*
G01X7203Y44348D01*
G01X6416Y44348D01*
G01X6416Y44940D01*
G37*
G36*
G01X6416Y46751D02*
G01X7203Y46751D01*
G01X7203Y46159D01*
G01X6416Y46159D01*
G01X6416Y46751D01*
G37*
G54D23*
G01X10900Y64998D03*
G01X10900Y65601D03*
G01X10900Y66398D03*
G01X10900Y67001D03*
G01X9800Y54801D03*
G01X9800Y54198D03*
G54D24*
G01X3701Y49100D03*
G01X3098Y49100D03*
G54D23*
G01X8900Y50301D03*
G01X8900Y49698D03*
G01X3200Y55001D03*
G01X3200Y54398D03*
G01X2100Y68719D03*
G01X2100Y69321D03*
G36*
G01X10076Y53476D02*
G01X10076Y52689D01*
G01X9524Y52689D01*
G01X9524Y53476D01*
G01X10076Y53476D01*
G37*
G36*
G01X10075Y51310D02*
G01X10075Y50522D01*
G01X9524Y50522D01*
G01X9524Y51310D01*
G01X10075Y51310D01*
G37*
G36*
G01X2923Y50523D02*
G01X2923Y51310D01*
G01X3475Y51310D01*
G01X3475Y50523D01*
G01X2923Y50523D01*
G37*
G36*
G01X2924Y52689D02*
G01X2924Y53477D01*
G01X3475Y53477D01*
G01X3475Y52689D01*
G01X2924Y52689D01*
G37*
G54D24*
G01X6801Y53400D03*
G01X6198Y53400D03*
G36*
G01X6617Y25294D02*
G01X6617Y25807D01*
G01X7011Y25807D01*
G01X7011Y25294D01*
G01X6617Y25294D01*
G37*
G36*
G01X6617Y24192D02*
G01X6617Y24705D01*
G01X7011Y24705D01*
G01X7011Y24192D01*
G01X6617Y24192D01*
G37*
G36*
G01X5987Y24192D02*
G01X5987Y24705D01*
G01X6381Y24705D01*
G01X6381Y24192D01*
G01X5987Y24192D01*
G37*
G36*
G01X5987Y25294D02*
G01X5987Y25807D01*
G01X6381Y25807D01*
G01X6381Y25294D01*
G01X5987Y25294D01*
G37*
G36*
G01X6617Y27794D02*
G01X6617Y28307D01*
G01X7011Y28307D01*
G01X7011Y27794D01*
G01X6617Y27794D01*
G37*
G36*
G01X6617Y26692D02*
G01X6617Y27205D01*
G01X7011Y27205D01*
G01X7011Y26692D01*
G01X6617Y26692D01*
G37*
G36*
G01X5987Y26692D02*
G01X5987Y27205D01*
G01X6381Y27205D01*
G01X6381Y26692D01*
G01X5987Y26692D01*
G37*
G36*
G01X5987Y27794D02*
G01X5987Y28307D01*
G01X6381Y28307D01*
G01X6381Y27794D01*
G01X5987Y27794D01*
G37*
G36*
G01X6617Y30294D02*
G01X6617Y30807D01*
G01X7011Y30807D01*
G01X7011Y30294D01*
G01X6617Y30294D01*
G37*
G36*
G01X6617Y29192D02*
G01X6617Y29705D01*
G01X7011Y29705D01*
G01X7011Y29192D01*
G01X6617Y29192D01*
G37*
G36*
G01X5987Y29192D02*
G01X5987Y29705D01*
G01X6381Y29705D01*
G01X6381Y29192D01*
G01X5987Y29192D01*
G37*
G36*
G01X5987Y30294D02*
G01X5987Y30807D01*
G01X6381Y30807D01*
G01X6381Y30294D01*
G01X5987Y30294D01*
G37*
G36*
G01X6617Y10294D02*
G01X6617Y10807D01*
G01X7011Y10807D01*
G01X7011Y10294D01*
G01X6617Y10294D01*
G37*
G36*
G01X6617Y9192D02*
G01X6617Y9705D01*
G01X7011Y9705D01*
G01X7011Y9192D01*
G01X6617Y9192D01*
G37*
G36*
G01X5987Y9192D02*
G01X5987Y9705D01*
G01X6381Y9705D01*
G01X6381Y9192D01*
G01X5987Y9192D01*
G37*
G36*
G01X5987Y10294D02*
G01X5987Y10807D01*
G01X6381Y10807D01*
G01X6381Y10294D01*
G01X5987Y10294D01*
G37*
G36*
G01X6617Y7794D02*
G01X6617Y8307D01*
G01X7011Y8307D01*
G01X7011Y7794D01*
G01X6617Y7794D01*
G37*
G36*
G01X6617Y6692D02*
G01X6617Y7205D01*
G01X7011Y7205D01*
G01X7011Y6692D01*
G01X6617Y6692D01*
G37*
G36*
G01X5987Y6692D02*
G01X5987Y7205D01*
G01X6381Y7205D01*
G01X6381Y6692D01*
G01X5987Y6692D01*
G37*
G36*
G01X5987Y7794D02*
G01X5987Y8307D01*
G01X6381Y8307D01*
G01X6381Y7794D01*
G01X5987Y7794D01*
G37*
G36*
G01X6617Y5294D02*
G01X6617Y5807D01*
G01X7011Y5807D01*
G01X7011Y5294D01*
G01X6617Y5294D01*
G37*
G36*
G01X6617Y4192D02*
G01X6617Y4705D01*
G01X7011Y4705D01*
G01X7011Y4192D01*
G01X6617Y4192D01*
G37*
G36*
G01X5987Y4192D02*
G01X5987Y4705D01*
G01X6381Y4705D01*
G01X6381Y4192D01*
G01X5987Y4192D01*
G37*
G36*
G01X5987Y5294D02*
G01X5987Y5807D01*
G01X6381Y5807D01*
G01X6381Y5294D01*
G01X5987Y5294D01*
G37*
G36*
G01X6617Y2794D02*
G01X6617Y3307D01*
G01X7011Y3307D01*
G01X7011Y2794D01*
G01X6617Y2794D01*
G37*
G36*
G01X6617Y1692D02*
G01X6617Y2205D01*
G01X7011Y2205D01*
G01X7011Y1692D01*
G01X6617Y1692D01*
G37*
G36*
G01X5987Y1692D02*
G01X5987Y2205D01*
G01X6381Y2205D01*
G01X6381Y1692D01*
G01X5987Y1692D01*
G37*
G36*
G01X5987Y2794D02*
G01X5987Y3307D01*
G01X6381Y3307D01*
G01X6381Y2794D01*
G01X5987Y2794D01*
G37*
G36*
G01X6617Y40294D02*
G01X6617Y40807D01*
G01X7011Y40807D01*
G01X7011Y40294D01*
G01X6617Y40294D01*
G37*
G36*
G01X6617Y39192D02*
G01X6617Y39705D01*
G01X7011Y39705D01*
G01X7011Y39192D01*
G01X6617Y39192D01*
G37*
G36*
G01X5987Y39192D02*
G01X5987Y39705D01*
G01X6381Y39705D01*
G01X6381Y39192D01*
G01X5987Y39192D01*
G37*
G36*
G01X5987Y40294D02*
G01X5987Y40807D01*
G01X6381Y40807D01*
G01X6381Y40294D01*
G01X5987Y40294D01*
G37*
G36*
G01X6617Y37794D02*
G01X6617Y38307D01*
G01X7011Y38307D01*
G01X7011Y37794D01*
G01X6617Y37794D01*
G37*
G36*
G01X6617Y36692D02*
G01X6617Y37205D01*
G01X7011Y37205D01*
G01X7011Y36692D01*
G01X6617Y36692D01*
G37*
G36*
G01X5987Y36692D02*
G01X5987Y37205D01*
G01X6381Y37205D01*
G01X6381Y36692D01*
G01X5987Y36692D01*
G37*
G36*
G01X5987Y37794D02*
G01X5987Y38307D01*
G01X6381Y38307D01*
G01X6381Y37794D01*
G01X5987Y37794D01*
G37*
G36*
G01X6617Y35294D02*
G01X6617Y35807D01*
G01X7011Y35807D01*
G01X7011Y35294D01*
G01X6617Y35294D01*
G37*
G36*
G01X6617Y34192D02*
G01X6617Y34705D01*
G01X7011Y34705D01*
G01X7011Y34192D01*
G01X6617Y34192D01*
G37*
G36*
G01X5987Y34192D02*
G01X5987Y34705D01*
G01X6381Y34705D01*
G01X6381Y34192D01*
G01X5987Y34192D01*
G37*
G36*
G01X5987Y35294D02*
G01X5987Y35807D01*
G01X6381Y35807D01*
G01X6381Y35294D01*
G01X5987Y35294D01*
G37*
G36*
G01X6617Y32794D02*
G01X6617Y33307D01*
G01X7011Y33307D01*
G01X7011Y32794D01*
G01X6617Y32794D01*
G37*
G36*
G01X6617Y31692D02*
G01X6617Y32205D01*
G01X7011Y32205D01*
G01X7011Y31692D01*
G01X6617Y31692D01*
G37*
G36*
G01X5987Y31692D02*
G01X5987Y32205D01*
G01X6381Y32205D01*
G01X6381Y31692D01*
G01X5987Y31692D01*
G37*
G36*
G01X5987Y32794D02*
G01X5987Y33307D01*
G01X6381Y33307D01*
G01X6381Y32794D01*
G01X5987Y32794D01*
G37*
G36*
G01X6617Y12794D02*
G01X6617Y13307D01*
G01X7011Y13307D01*
G01X7011Y12794D01*
G01X6617Y12794D01*
G37*
G36*
G01X6617Y11692D02*
G01X6617Y12205D01*
G01X7011Y12205D01*
G01X7011Y11692D01*
G01X6617Y11692D01*
G37*
G36*
G01X5987Y11692D02*
G01X5987Y12205D01*
G01X6381Y12205D01*
G01X6381Y11692D01*
G01X5987Y11692D01*
G37*
G36*
G01X5987Y12794D02*
G01X5987Y13307D01*
G01X6381Y13307D01*
G01X6381Y12794D01*
G01X5987Y12794D01*
G37*
G36*
G01X6617Y15294D02*
G01X6617Y15807D01*
G01X7011Y15807D01*
G01X7011Y15294D01*
G01X6617Y15294D01*
G37*
G36*
G01X6617Y14192D02*
G01X6617Y14705D01*
G01X7011Y14705D01*
G01X7011Y14192D01*
G01X6617Y14192D01*
G37*
G36*
G01X5987Y14192D02*
G01X5987Y14705D01*
G01X6381Y14705D01*
G01X6381Y14192D01*
G01X5987Y14192D01*
G37*
G36*
G01X5987Y15294D02*
G01X5987Y15807D01*
G01X6381Y15807D01*
G01X6381Y15294D01*
G01X5987Y15294D01*
G37*
G36*
G01X6617Y17794D02*
G01X6617Y18307D01*
G01X7011Y18307D01*
G01X7011Y17794D01*
G01X6617Y17794D01*
G37*
G36*
G01X6617Y16692D02*
G01X6617Y17205D01*
G01X7011Y17205D01*
G01X7011Y16692D01*
G01X6617Y16692D01*
G37*
G36*
G01X5987Y16692D02*
G01X5987Y17205D01*
G01X6381Y17205D01*
G01X6381Y16692D01*
G01X5987Y16692D01*
G37*
G36*
G01X5987Y17794D02*
G01X5987Y18307D01*
G01X6381Y18307D01*
G01X6381Y17794D01*
G01X5987Y17794D01*
G37*
G36*
G01X6617Y20294D02*
G01X6617Y20807D01*
G01X7011Y20807D01*
G01X7011Y20294D01*
G01X6617Y20294D01*
G37*
G36*
G01X6617Y19192D02*
G01X6617Y19705D01*
G01X7011Y19705D01*
G01X7011Y19192D01*
G01X6617Y19192D01*
G37*
G36*
G01X5987Y19192D02*
G01X5987Y19705D01*
G01X6381Y19705D01*
G01X6381Y19192D01*
G01X5987Y19192D01*
G37*
G36*
G01X5987Y20294D02*
G01X5987Y20807D01*
G01X6381Y20807D01*
G01X6381Y20294D01*
G01X5987Y20294D01*
G37*
G54D23*
G01X5350Y46851D03*
G01X5350Y46248D03*
G01X6050Y46851D03*
G01X6050Y46248D03*
G54D24*
G01X6648Y48400D03*
G01X7251Y48400D03*
G01X6648Y49400D03*
G01X7251Y49400D03*
G54D23*
G01X10900Y63598D03*
G01X10900Y64201D03*
G01X10900Y58098D03*
G01X10900Y58701D03*
G54D26*
G01X5019Y63819D03*
G01X5019Y63559D03*
G01X5019Y63309D03*
G01X5019Y63050D03*
G01X5019Y62800D03*
G01X5019Y62540D03*
G01X5019Y62280D03*
G01X5019Y62030D03*
G01X5019Y61769D03*
G01X5019Y61519D03*
G01X5019Y61259D03*
G01X5019Y61000D03*
G01X5019Y60750D03*
G01X5019Y60490D03*
G01X5019Y60240D03*
G01X5019Y59980D03*
G01X7979Y59980D03*
G01X7979Y60240D03*
G01X7979Y60490D03*
G01X7979Y60750D03*
G01X7979Y61000D03*
G01X7979Y61259D03*
G01X7979Y61519D03*
G01X7979Y61769D03*
G01X7979Y62030D03*
G01X7979Y62280D03*
G01X7979Y62540D03*
G01X7979Y62800D03*
G54D27*
G01X6499Y61899D03*
G54D26*
G01X7979Y63050D03*
G01X7979Y63309D03*
G01X7979Y63559D03*
G01X7979Y63819D03*
G01X5019Y58219D03*
G01X5019Y57959D03*
G01X5019Y57709D03*
G01X5019Y57450D03*
G01X5019Y57200D03*
G01X5019Y56940D03*
G01X5019Y56680D03*
G01X5019Y56430D03*
G01X5019Y56169D03*
G01X5019Y55919D03*
G01X5019Y55659D03*
G01X5019Y55400D03*
G01X5019Y55150D03*
G01X5019Y54890D03*
G01X5019Y54640D03*
G01X5019Y54380D03*
G01X7979Y54380D03*
G01X7979Y54640D03*
G01X7979Y54890D03*
G01X7979Y55150D03*
G01X7979Y55400D03*
G01X7979Y55659D03*
G01X7979Y55919D03*
G01X7979Y56169D03*
G01X7979Y56430D03*
G01X7979Y56680D03*
G01X7979Y56940D03*
G01X7979Y57200D03*
G54D27*
G01X6499Y56299D03*
G54D26*
G01X7979Y57450D03*
G01X7979Y57709D03*
G01X7979Y57959D03*
G01X7979Y58219D03*
M00*
M02*
